<svg width="20" height="20" viewBox="0 0 20 20" fill="none" xmlns="http://www.w3.org/2000/svg">
<path d="M10 0C4.54545 0 0 4.54545 0 10C0 15.4545 4.54545 20 10 20C15.5682 20 20 15.4545 20 10C20 4.54545 15.5682 0 10 0ZM18.6364 9.31818H14.8864C14.7727 6.13636 14.0909 3.52273 12.9545 1.81818C16.1364 3.06818 18.4091 5.90909 18.6364 9.31818ZM10 18.75C8.40909 18.75 6.70455 15.4545 6.59091 10.7955H13.5227C13.4091 15.4545 11.5909 18.75 10 18.75ZM6.59091 9.31818C6.70455 4.54545 8.52273 1.36364 10 1.36364C11.5909 1.36364 13.2955 4.65909 13.4091 9.31818H6.59091ZM7.15909 1.93182C6.02273 3.63636 5.34091 6.25 5.22727 9.43182H1.36364C1.70455 5.90909 3.97727 3.06818 7.15909 1.93182ZM1.36364 10.7955H5.11364C5.22727 13.9773 5.90909 16.5909 7.04545 18.2955C3.97727 17.0455 1.70455 14.2045 1.36364 10.7955ZM12.9545 18.1818C14.0909 16.4773 14.7727 13.8636 14.8864 10.6818H18.6364C18.4091 14.2045 16.1364 17.0455 12.9545 18.1818Z" fill="white"/>
</svg>
