<svg width="82" height="81" viewBox="0 0 82 81" fill="none" xmlns="http://www.w3.org/2000/svg">
<ellipse cx="41" cy="40.5" rx="41" ry="40.5" fill="white"/>
<circle cx="41.5" cy="40.5" r="33.5" fill="black"/>
<path fill-rule="evenodd" clip-rule="evenodd" d="M36.5658 57.0548H32.8393C31.6349 57.0548 31.6349 55.2277 32.8393 55.2277H36.5658C37.7474 55.2277 37.7474 57.0548 36.5658 57.0548ZM57.7816 59.9781H24.9089C24.409 59.9781 24 59.567 24 59.0646V39.3852C24 38.8827 24.409 38.4716 24.9089 38.4716H25.6588V35.0687C25.6588 34.5662 26.0678 34.1551 26.5677 34.1551H28.8855V31.6657H24.9089C24.409 31.6657 24 31.2546 24 30.7521V21.9135C24 21.4111 24.409 21 24.9089 21H38.9745C39.4744 21 39.8834 21.4111 39.8834 21.9135V30.7521C39.8834 31.2546 39.4744 31.6657 38.9745 31.6657H34.9752V34.1551H37.3157C37.8156 34.1551 38.2246 34.5662 38.2246 35.0687V38.4716H40.0879L42.2012 34.6347C42.3602 34.3378 42.6783 34.1551 42.9965 34.1551H53.7445C54.0626 34.1551 54.3807 34.3378 54.5398 34.6347L56.653 38.4716H57.7892C58.2891 38.4716 58.6981 38.8827 58.6981 39.3852V59.0646C58.6905 59.567 58.2815 59.9781 57.7816 59.9781ZM25.8178 58.151H56.8727V40.2987C56.2364 40.2987 55.6456 40.4129 55.3275 39.842L53.1915 35.9822H43.5342L41.421 39.842C41.2619 40.116 40.9438 40.2987 40.6257 40.2987H25.8178V42.0345H28.6582C29.1581 42.0345 29.5671 42.4456 29.5671 42.948V55.4865C29.5671 55.989 29.1581 56.4001 28.6582 56.4001H25.8178V58.151ZM27.4766 38.4716H36.4068V35.9822H27.4766V38.4716ZM29.7717 29.8386H38.0656V22.8271H25.8178V29.8386H29.7717ZM30.7033 34.1551H33.1574V31.6657H30.7033V34.1551ZM51.3055 40.2987H45.443C44.2387 40.2987 44.2387 38.4716 45.443 38.4716H51.3055C52.4871 38.4716 52.4871 40.2987 51.3055 40.2987ZM47.8971 53.629C45.4657 53.629 43.4888 51.6648 43.4888 49.2211C43.4888 46.7773 45.4657 44.7904 47.8971 44.7904C50.3057 44.7904 52.2826 46.7773 52.2826 49.2211C52.2826 51.6648 50.3057 53.629 47.8971 53.629ZM47.8971 46.6175C46.4655 46.6175 45.3066 47.7822 45.3066 49.2211C45.3066 50.6371 46.4655 51.8019 47.8971 51.8019C49.3059 51.8019 50.4648 50.6371 50.4648 49.2211C50.4648 47.7822 49.3059 46.6175 47.8971 46.6175ZM25.8178 54.5653H27.7493V43.854H25.8178V54.5653ZM47.8971 57.0548C43.5797 57.0548 40.0803 53.5376 40.0803 49.2211C40.0803 44.8817 43.5797 41.3645 47.8971 41.3645C52.1917 41.3645 55.6911 44.9046 55.6911 49.2211C55.6911 53.5376 52.1917 57.0548 47.8971 57.0548ZM47.8971 43.1916C44.5795 43.1916 41.8982 45.9095 41.8982 49.2211C41.8982 52.5327 44.5795 55.2277 47.8971 55.2277C51.1919 55.2277 53.8732 52.5327 53.8732 49.2211C53.8732 45.9095 51.1919 43.1916 47.8971 43.1916ZM34.8389 46.9829C33.2937 46.9829 32.044 45.7267 32.044 44.1737C32.044 42.6207 33.2937 41.3645 34.8389 41.3645C36.3613 41.3645 37.6111 42.6207 37.6111 44.1737C37.6111 45.7267 36.3613 46.9829 34.8389 46.9829ZM34.8389 43.1916C33.5664 43.1916 33.5664 45.1558 34.8389 45.1558C36.1114 45.1558 36.1114 43.1916 34.8389 43.1916ZM36.5658 53.629H32.8393C31.6349 53.629 31.6349 51.8019 32.8393 51.8019H36.5658C37.7474 51.8019 37.7474 53.629 36.5658 53.629Z" fill="white"/>
</svg>
