<svg width="82" height="81" viewBox="0 0 82 81" fill="none" xmlns="http://www.w3.org/2000/svg">
<ellipse cx="41" cy="40.5" rx="41" ry="40.5" fill="white"/>
<circle cx="41.5" cy="40.5" r="33.5" fill="black"/>
<path d="M58.573 30.9306C57.3366 27.8505 55.3142 25.1206 52.7129 23.0339C52.2484 22.6622 51.5767 22.7409 51.2051 23.1982C50.8334 23.6627 50.9121 24.3345 51.3694 24.7061C53.6848 26.5642 55.4857 28.9868 56.5863 31.7238C56.8078 32.2741 57.4295 32.5385 57.9798 32.317C58.5229 32.1026 58.7873 31.4737 58.573 30.9306Z" fill="white"/>
<path d="M48.7174 28.072C50.4396 29.4584 51.776 31.2664 52.5979 33.3032C52.8194 33.8534 53.4411 34.1178 53.9914 33.8963C54.5417 33.6748 54.8061 33.053 54.5845 32.5028C53.6269 30.1302 52.0619 28.0149 50.0609 26.3998C49.5964 26.0282 48.9246 26.0996 48.553 26.5641C48.1814 27.0287 48.2529 27.7004 48.7174 28.072Z" fill="white"/>
<path d="M25.4566 31.7238C26.55 28.9868 28.3581 26.5642 30.6735 24.7061C31.138 24.3345 31.2095 23.6627 30.8378 23.1982C30.4662 22.7409 29.7945 22.6622 29.33 23.0339C26.7287 25.1206 24.6991 27.8505 23.4699 30.9306C23.2484 31.4809 23.52 32.1026 24.0631 32.3241C24.6134 32.5385 25.2351 32.2741 25.4566 31.7238Z" fill="white"/>
<path d="M27.4572 32.5028C27.2357 33.053 27.5001 33.6748 28.0504 33.8963C28.6006 34.1178 29.2224 33.8463 29.4439 33.3032C30.2657 31.2664 31.6021 29.4584 33.3244 28.072C33.7889 27.7004 33.8603 27.0287 33.4887 26.5641C33.1171 26.0996 32.4454 26.0282 31.9809 26.3998C29.9727 28.022 28.4077 30.1302 27.4572 32.5028Z" fill="white"/>
<path d="M56.029 41.0927H50.9194C51.2338 40.0994 51.4125 39.0417 51.4125 37.9412C51.4125 32.2169 46.7531 27.5575 41.0288 27.5575C35.3046 27.5575 30.6452 32.2169 30.6452 37.9412C30.6452 39.0417 30.8167 40.0994 31.1383 41.0927H26.0143C25.4212 41.0927 24.9424 41.5715 24.9424 42.1647V58.3154C24.9424 58.9086 25.4212 59.3874 26.0143 59.3874H56.029C56.6222 59.3874 57.101 58.9086 57.101 58.3154V42.1647C57.101 41.5715 56.6222 41.0927 56.029 41.0927ZM32.8534 36.8406C33.0178 35.6329 33.4394 34.5109 34.0611 33.5319C34.6829 33.8249 35.6119 34.1893 36.8697 34.4609C36.7267 35.1898 36.6267 35.9831 36.5767 36.8406H32.8534ZM45.4596 36.8406C45.4096 35.9831 45.3095 35.1898 45.1666 34.4609C46.4243 34.1893 47.3534 33.8249 47.9751 33.5319C48.5968 34.5181 49.0256 35.6401 49.1828 36.8406H45.4596ZM44.6092 32.3885C44.2947 31.488 43.9303 30.7305 43.5587 30.1016C44.6735 30.4661 45.6811 31.0521 46.5244 31.8239C46.0527 32.0097 45.4167 32.217 44.6092 32.3885ZM42.4367 32.6815C41.4934 32.7458 40.5357 32.7458 39.6067 32.6815C39.9497 31.7953 40.4214 30.9235 41.0217 30.1731C41.622 30.9306 42.0936 31.7953 42.4367 32.6815ZM37.4271 32.3885C36.6195 32.217 35.9835 32.0169 35.5047 31.8239C36.3551 31.0592 37.3628 30.4661 38.4704 30.1016C38.106 30.7234 37.7415 31.4809 37.4271 32.3885ZM38.9921 34.7825C40.2785 34.904 41.7006 34.9111 43.0441 34.7825C43.1656 35.4042 43.2656 36.0831 43.3085 36.8406H38.7277C38.7777 36.0903 38.8706 35.4042 38.9921 34.7825ZM43.3157 38.9846C43.2728 39.7564 43.1727 40.4567 43.0513 41.0927H38.9921C38.8635 40.4567 38.7706 39.7564 38.7277 38.9846H43.3157ZM45.2309 41.0927C45.3452 40.4424 45.4238 39.7421 45.4596 38.9846H49.19C49.0971 39.7206 48.9041 40.4281 48.6254 41.0927H45.2309ZM32.8463 38.9846H36.5767C36.6124 39.7421 36.6981 40.4424 36.8053 41.0927H33.4037C33.1321 40.4281 32.9392 39.7206 32.8463 38.9846ZM54.9571 57.2435H27.0863V43.2366H54.9571V57.2435Z" fill="white"/>
<path d="M30.2731 54.5421H32.4242C33.0173 54.5421 33.4961 54.0633 33.4961 53.4702C33.4961 52.877 33.0173 52.3982 32.4242 52.3982H31.3451V47.0099C31.3451 46.4167 30.8663 45.9379 30.2731 45.9379C29.68 45.9379 29.2012 46.4167 29.2012 47.0099V53.4702C29.2012 54.0633 29.6871 54.5421 30.2731 54.5421Z" fill="white"/>
<path d="M41.3148 54.2277C41.522 54.4349 41.8007 54.5421 42.0723 54.5421C42.3439 54.5421 42.6226 54.4349 42.8298 54.2277L44.9737 52.0838C45.1738 51.8837 45.2882 51.6121 45.2882 51.3263V47.0385C45.2882 46.4453 44.8094 45.9665 44.2162 45.9665C43.6231 45.9665 43.1443 46.4453 43.1443 47.0385V50.8832L42.0723 51.9552L41.0004 50.8832V47.0385C41.0004 46.4453 40.5215 45.9665 39.9284 45.9665C39.3353 45.9665 38.8564 46.4453 38.8564 47.0385V51.3263C38.8564 51.6121 38.9708 51.8837 39.1709 52.0838L41.3148 54.2277Z" fill="white"/>
<path d="M48.5036 54.5421H51.7195C52.3126 54.5421 52.7914 54.0633 52.7914 53.4702C52.7914 52.877 52.3126 52.3982 51.7195 52.3982H49.5755V51.3763H51.7195C52.3126 51.3763 52.7914 50.8975 52.7914 50.3044C52.7914 49.7112 52.3126 49.2324 51.7195 49.2324H49.5755V48.1104H51.7623C52.3555 48.1104 52.8343 47.6316 52.8343 47.0385C52.8343 46.4453 52.3555 45.9665 51.7623 45.9665H48.5036C47.9104 45.9665 47.4316 46.4453 47.4316 47.0385V53.4702C47.4316 54.0633 47.9104 54.5421 48.5036 54.5421Z" fill="white"/>
<path d="M35.6403 54.5421C36.2335 54.5421 36.7123 54.0633 36.7123 53.4702V47.0099C36.7123 46.4167 36.2335 45.9379 35.6403 45.9379C35.0472 45.9379 34.5684 46.4167 34.5684 47.0099V53.4702C34.5684 54.0633 35.0472 54.5421 35.6403 54.5421Z" fill="white"/>
</svg>
