<svg width="82" height="81" viewBox="0 0 82 81" fill="none" xmlns="http://www.w3.org/2000/svg">
<ellipse cx="41" cy="40.5" rx="41" ry="40.5" fill="white"/>
<circle cx="41.5" cy="40.5" r="33.5" fill="black"/>
<path d="M61.0809 28.2465C60.6592 27.9441 60.142 27.8645 59.6486 28.0237L57.0386 28.8751H54.906C54.3331 28.8751 53.8636 29.3446 53.8636 29.9175V30.1483H51.755C51.4287 30.1483 51.1582 30.4188 51.1582 30.7451V32.1137H49.7895V29.5276C49.7895 28.4932 48.954 27.6576 47.9195 27.6576H44.9913V26.0264C44.9913 25.541 45.3891 25.1511 45.8666 25.1511H46.893C47.1636 26.2731 48.1742 27.1086 49.3757 27.1086H55.5745C56.9829 27.1086 58.1288 25.9627 58.1288 24.5543C58.1288 23.1459 56.9829 22 55.5745 22H55.28C54.9538 22 54.6832 22.2705 54.6832 22.5968C54.6832 22.923 54.9538 23.1936 55.28 23.1936H55.5745C56.3224 23.1936 56.9352 23.8063 56.9352 24.5543C56.9352 25.3023 56.3224 25.915 55.5745 25.915H49.3757C48.6277 25.915 48.015 25.3023 48.015 24.5543C48.015 23.8063 48.6277 23.1936 49.3757 23.1936H52.8929C53.2191 23.1936 53.4896 22.923 53.4896 22.5968C53.4896 22.2705 53.2191 22 52.8929 22H49.3757C48.1742 22 47.1636 22.8355 46.893 23.9575H45.8666C44.7207 23.9575 43.7977 24.8885 43.7977 26.0264V27.6497H41.6094V25.1272C41.6094 24.2599 40.9092 23.5596 40.0418 23.5596H31.1456C30.3419 23.5596 29.5859 23.9177 29.0687 24.5384L25.0105 29.4639H22.87C21.8355 29.4639 21 30.2995 21 31.3339V41.3999C21 42.4343 21.8355 43.2699 22.87 43.2699H24.9627C25.289 43.2699 25.5595 42.9993 25.5595 42.6731C25.5595 42.3468 25.289 42.0763 24.9627 42.0763H22.87C22.496 42.0763 22.1936 41.7739 22.1936 41.3999V31.3339C22.1936 30.9599 22.496 30.6575 22.87 30.6575H33.7237C34.0977 30.6575 34.4478 30.4586 34.6388 30.1403L35.4266 28.8433H47.9195C48.2935 28.8433 48.5959 29.1457 48.5959 29.5196V33.92C48.5959 34.2463 48.8665 34.5168 49.1927 34.5168C49.519 34.5168 49.7895 34.2463 49.7895 33.92V33.3073H51.1582V38.3522H49.7895V36.3072C49.7895 35.981 49.519 35.7104 49.1927 35.7104C48.8665 35.7104 48.5959 35.981 48.5959 36.3072V41.3999C48.5959 41.7739 48.2935 42.0763 47.9195 42.0763H42.1982C42.1903 42.0763 42.1903 42.0763 42.1823 42.0763H31.5195C31.5116 42.0763 31.5116 42.0763 31.5036 42.0763H27.3499C27.0237 42.0763 26.7531 42.3468 26.7531 42.6731C26.7531 42.9993 27.0237 43.2699 27.3499 43.2699H30.9228V43.7712C30.9228 45.2035 31.9652 46.405 33.3259 46.6517L30.1668 46.9302C30.0077 46.9461 29.8644 47.0177 29.761 47.1371L26.4746 51.0601C25.9256 50.694 25.1776 50.7895 24.7399 51.3067L22.7029 53.7337C22.2413 54.2828 22.313 55.1103 22.862 55.5718L23.5623 56.1607C23.8089 56.3676 24.1033 56.4631 24.3978 56.4631C24.7718 56.4631 25.1458 56.3039 25.4004 55.9936L27.4454 53.5825C27.8751 53.0653 27.8433 52.3093 27.3818 51.8319L30.509 48.0999L34.1216 47.7816C34.1693 47.9408 34.233 48.092 34.3046 48.2352H33.0155C32.3232 48.2352 31.7662 48.8002 31.7662 49.4845V50.4871C31.7662 51.0203 32.1004 51.4738 32.5699 51.6569L30.2146 57.3463C30.0872 57.6487 30.2305 57.9988 30.5408 58.1261C30.6124 58.158 30.692 58.1739 30.7716 58.1739C31.0023 58.1739 31.2251 58.0386 31.3206 57.8078L33.8351 51.7444H36.2701V57.585C36.2701 57.9113 36.5406 58.1818 36.8669 58.1818C37.1931 58.1818 37.4636 57.9113 37.4636 57.585V51.7444H39.8986L42.4131 57.8078C42.5086 58.0386 42.7314 58.1739 42.9621 58.1739C43.0417 58.1739 43.1133 58.158 43.1929 58.1261C43.4953 57.9988 43.6385 57.6487 43.5192 57.3463L41.1956 51.7364H41.2275C41.9197 51.7364 42.4767 51.1715 42.4767 50.4871V49.4845C42.4767 48.7922 41.9118 48.2352 41.2275 48.2352H39.4132C39.6042 47.8533 39.7156 47.4156 39.7156 46.962C39.7156 46.8745 39.7076 46.787 39.7076 46.6995H39.8747C41.49 46.6995 42.803 45.3865 42.803 43.7712V43.2699H47.9434C48.9779 43.2699 49.8134 42.4343 49.8134 41.3999V39.5458H51.1582V40.9145C51.1582 41.2407 51.4287 41.5113 51.755 41.5113H53.8636V41.7421C53.8636 42.315 54.3331 42.7845 54.906 42.7845H57.0386L59.6486 43.6359C59.8157 43.6916 59.9828 43.7155 60.1499 43.7155C60.4762 43.7155 60.8024 43.612 61.0809 43.4131C61.5027 43.1107 61.7414 42.6412 61.7414 42.124V29.5356C61.7414 29.0183 61.5027 28.5489 61.0809 28.2465ZM35.3629 27.6576C34.9889 27.6576 34.6388 27.8566 34.4478 28.1749L33.6521 29.4639H26.5622L29.9917 25.2943C30.2782 24.9442 30.6999 24.7532 31.1456 24.7532H40.0418C40.2487 24.7532 40.4158 24.9203 40.4158 25.1272V27.6576H35.3629ZM26.5383 52.8107L24.5012 55.2376C24.4614 55.2854 24.3898 55.2933 24.3421 55.2535L23.6418 54.6647C23.5941 54.6249 23.5861 54.5533 23.6259 54.5056L25.655 52.0786C25.6789 52.0547 25.7107 52.0388 25.7425 52.0388C25.7664 52.0388 25.7903 52.0468 25.8142 52.0627L26.5144 52.6515C26.5701 52.6913 26.5781 52.7629 26.5383 52.8107ZM37.2647 46.9143C37.2329 46.5881 36.9464 46.3414 36.6202 46.3732L35.2754 46.4926C35.4823 45.8162 36.1109 45.3228 36.8509 45.3228C37.7581 45.3228 38.4981 46.0629 38.4981 46.97C38.4981 47.8771 37.7581 48.6172 36.8509 48.6172C36.1984 48.6172 35.6335 48.2352 35.3629 47.6782L36.7236 47.5588C37.0499 47.535 37.2965 47.2406 37.2647 46.9143ZM41.2593 49.4925V50.4951C41.2593 50.5269 41.2354 50.5508 41.2036 50.5508H33.0155C32.9837 50.5508 32.9598 50.5269 32.9598 50.4951V49.4925C32.9598 49.4606 32.9837 49.4368 33.0155 49.4368H35.4425C35.8563 49.6755 36.3417 49.8108 36.8509 49.8108C37.3602 49.8108 37.8456 49.6755 38.2594 49.4368H41.2036C41.2354 49.4368 41.2593 49.4606 41.2593 49.4925ZM41.5776 43.7791C41.5776 44.734 40.7978 45.5138 39.8429 45.5138H39.2859C38.7925 44.6863 37.8774 44.1213 36.843 44.1213C35.8085 44.1213 34.9014 44.6783 34.4001 45.5138H33.8431C32.8882 45.5138 32.1084 44.734 32.1084 43.7791V43.2778H41.5696V43.7791H41.5776ZM52.3518 34.3975H53.8636V37.2541H52.3518V34.3975ZM52.3518 31.3419H53.8636V33.2039H52.3518V31.3419ZM52.3518 40.3177V38.4557H53.8636V40.3177H52.3518ZM60.5478 42.124C60.5478 42.2513 60.4841 42.3707 60.3807 42.4503C60.2772 42.5298 60.1419 42.5457 60.0226 42.506L57.3171 41.6227C57.2535 41.6068 57.1978 41.5909 57.1341 41.5909H55.0572V30.0687H57.1341C57.1978 30.0687 57.2614 30.0607 57.3171 30.0369L60.0226 29.1536C60.1499 29.1138 60.2772 29.1377 60.3807 29.2093C60.4841 29.2809 60.5478 29.4082 60.5478 29.5356V42.124Z" fill="white"/>
<path d="M28.0902 34.3577C28.0902 33.1243 27.0875 32.1217 25.8542 32.1217C24.6208 32.1217 23.6182 33.1243 23.6182 34.3577C23.6182 35.5911 24.6208 36.5937 25.8542 36.5937C27.0875 36.5937 28.0902 35.5911 28.0902 34.3577ZM25.8542 35.4001C25.2812 35.4001 24.8118 34.9306 24.8118 34.3577C24.8118 33.7847 25.2812 33.3153 25.8542 33.3153C26.4271 33.3153 26.8966 33.7847 26.8966 34.3577C26.8966 34.9306 26.4271 35.4001 25.8542 35.4001Z" fill="white"/>
<path d="M38.0606 32.7026C38.2834 32.7026 38.4903 32.5832 38.5938 32.3763L39.2781 31.0156C39.4293 30.7212 39.3099 30.3631 39.0075 30.2119C38.7131 30.0607 38.355 30.1801 38.2038 30.4825L37.5195 31.8432C37.3683 32.1376 37.4877 32.4957 37.7901 32.6469C37.8856 32.6867 37.9731 32.7026 38.0606 32.7026Z" fill="white"/>
<path d="M40.6624 32.7026C40.8852 32.7026 41.0921 32.5832 41.1955 32.3763L41.8798 31.0156C42.031 30.7212 41.9117 30.3631 41.6093 30.2119C41.3149 30.0607 40.9568 30.1801 40.8056 30.4825L40.1213 31.8432C39.9701 32.1376 40.0895 32.4957 40.3839 32.6469C40.4873 32.6867 40.5749 32.7026 40.6624 32.7026Z" fill="white"/>
<path d="M43.2639 32.7026C43.4867 32.7026 43.6936 32.5832 43.7971 32.3763L44.4814 31.0156C44.6326 30.7212 44.5132 30.3631 44.2109 30.2119C43.9164 30.0607 43.5584 30.1801 43.4072 30.4825L42.7228 31.8432C42.5717 32.1376 42.691 32.4957 42.9854 32.6469C43.0889 32.6867 43.1764 32.7026 43.2639 32.7026Z" fill="white"/>
<path d="M35.6182 36.2515V39.4583C35.6182 40.2222 36.2388 40.8429 37.0027 40.8429H43.2492C44.0131 40.8429 44.6338 40.2222 44.6338 39.4583V36.2515C44.6338 35.4876 44.0131 34.8669 43.2492 34.8669H37.0027C36.2388 34.8669 35.6182 35.4876 35.6182 36.2515ZM43.4481 36.2515V39.4583C43.4481 39.5617 43.3606 39.6493 43.2572 39.6493H37.0186C36.9152 39.6493 36.8277 39.5617 36.8277 39.4583V36.2515C36.8277 36.1481 36.9152 36.0605 37.0186 36.0605H43.2572C43.3606 36.0605 43.4481 36.1481 43.4481 36.2515Z" fill="white"/>
</svg>
