<svg width="82" height="81" viewBox="0 0 82 81" fill="none" xmlns="http://www.w3.org/2000/svg">
<ellipse cx="41" cy="40.5" rx="41" ry="40.5" fill="white"/>
<circle cx="41.5" cy="40.5" r="33.5" fill="black"/>
<path d="M49.0686 33.1271C48.7466 33.1271 48.4832 32.8621 48.4832 32.5382C48.4832 30.2635 47.0416 28.4157 45.2708 28.4157H36.8265C35.0557 28.4157 33.6141 30.2635 33.6141 32.5382C33.6141 32.8621 33.3507 33.1271 33.0288 33.1271C32.7068 33.1271 32.4434 32.8621 32.4434 32.5382C32.4434 29.6157 34.4118 27.2452 36.8265 27.2452H45.2708C47.6856 27.2452 49.654 29.623 49.654 32.5455C49.654 32.8694 49.3905 33.1271 49.0686 33.1271Z" fill="white"/>
<path d="M54.7698 37.8385H27.3221C25.9537 37.8385 24.8341 36.5207 24.8341 34.8938C24.8268 34.1577 25.0683 33.4363 25.522 32.8621C25.9976 32.2731 26.6342 31.9492 27.3221 31.9492H33.0224C33.3443 31.9492 33.6078 32.2143 33.6078 32.5382C33.6078 32.8621 33.3443 33.1271 33.0224 33.1271H27.3221C26.9928 33.1271 26.6781 33.2964 26.4367 33.5982C26.1513 33.9663 26.0049 34.4227 26.0123 34.8938C26.0123 35.8508 26.6123 36.6606 27.3294 36.6606H54.7771C55.1064 36.6606 55.421 36.4913 55.6625 36.1895C55.9479 35.8214 56.0942 35.365 56.0869 34.9012C56.0869 33.9442 55.4869 33.1344 54.7698 33.1344H49.0695C48.7475 33.1344 48.4841 32.8694 48.4841 32.5455C48.4841 32.2216 48.7475 31.9566 49.0695 31.9566H54.7698C56.1381 31.9566 57.2577 33.2743 57.2577 34.9012C57.265 35.6374 57.0236 36.3588 56.5699 36.933C56.0942 37.5145 55.4576 37.8385 54.7698 37.8385Z" fill="white"/>
<path d="M47.2753 54.608H44.524C44.202 54.608 43.9386 54.343 43.9386 54.019C43.9386 53.6951 44.202 53.4301 44.524 53.4301H47.2753C47.6339 53.4301 47.9266 53.1357 47.9266 52.775V44.4417C47.9266 44.081 47.6339 43.7865 47.2753 43.7865H34.8137C34.4552 43.7865 34.1625 44.081 34.1625 44.4417V52.775C34.1625 53.1357 34.4552 53.4301 34.8137 53.4301H37.5724C37.8944 53.4301 38.1578 53.6951 38.1578 54.019C38.1578 54.343 37.8944 54.608 37.5724 54.608H34.8211C33.8186 54.608 32.999 53.7835 32.999 52.775V44.4417C32.999 43.4332 33.8186 42.6087 34.8211 42.6087H47.2827C48.2852 42.6087 49.1047 43.4332 49.1047 44.4417V52.775C49.0974 53.7835 48.2852 54.608 47.2753 54.608Z" fill="white"/>
<path d="M44.6067 43.7866C44.3213 43.7866 44.0725 43.5731 44.0286 43.286L43.7798 41.6591C43.7579 41.5193 43.6701 41.2763 43.4798 41.2763H38.6137C38.4235 41.2763 38.3357 41.5193 38.3137 41.6591L38.0649 43.286C38.021 43.6099 37.7356 43.8381 37.4137 43.794C37.0917 43.7498 36.8649 43.4627 36.9088 43.1388C36.9088 43.1314 36.9088 43.1167 36.9161 43.1093L37.1649 41.4824C37.2893 40.6727 37.8893 40.0985 38.621 40.0985H43.4871C44.2189 40.0985 44.8189 40.6653 44.9433 41.4824L45.1921 43.1093C45.2433 43.4332 45.0238 43.7351 44.7018 43.7792C44.6652 43.7866 44.636 43.7866 44.6067 43.7866Z" fill="white"/>
<path d="M41.049 55.9993C37.9244 55.9993 35.3926 53.4523 35.3926 50.3089C35.3926 47.1655 37.9244 44.6184 41.049 44.6184C44.1735 44.6184 46.7053 47.1655 46.7053 50.3089C46.698 53.4523 44.1735 55.992 41.049 55.9993ZM41.049 45.7963C38.5757 45.7963 36.5634 47.8133 36.5634 50.3089C36.5634 52.8044 38.5683 54.8215 41.049 54.8215C43.5296 54.8215 45.5345 52.8044 45.5345 50.3089C45.5272 47.8207 43.5223 45.8036 41.049 45.7963Z" fill="white"/>
<path d="M41.0494 53.3492C39.3811 53.3492 38.0273 51.9873 38.0273 50.3089C38.0273 48.6305 39.3811 47.2686 41.0494 47.2686C42.7178 47.2686 44.0715 48.6305 44.0715 50.3089C44.0715 51.9873 42.7178 53.3492 41.0494 53.3492ZM41.0494 48.4464C40.025 48.4464 39.1981 49.2783 39.1981 50.3089C39.1981 51.3395 40.025 52.1714 41.0494 52.1714C42.0739 52.1714 42.9008 51.3395 42.9008 50.3089C42.9008 49.2783 42.0739 48.4464 41.0494 48.4464Z" fill="white"/>
<path d="M41.0493 41.2763C40.7273 41.2763 40.4639 41.0113 40.4639 40.6874V37.2496C40.4639 36.9257 40.7273 36.6606 41.0493 36.6606C41.3712 36.6606 41.6347 36.9257 41.6347 37.2496V40.6874C41.6347 41.0113 41.3712 41.2763 41.0493 41.2763Z" fill="white"/>
<path d="M54.1182 32.8253C53.7962 32.8253 53.5328 32.5603 53.5328 32.2364V26.8845C53.5328 26.4944 53.2181 26.1778 52.8303 26.1778C52.4425 26.1778 52.1278 26.4944 52.1278 26.8845V32.2364C52.1278 32.5603 51.8644 32.8253 51.5424 32.8253C51.2205 32.8253 50.957 32.5603 50.957 32.2364V26.8845C50.957 25.8466 51.7985 25 52.8303 25C53.8621 25 54.7036 25.8466 54.7036 26.8845V32.2364C54.7036 32.5603 54.4401 32.8253 54.1182 32.8253Z" fill="white"/>
<path d="M51.5427 28.0477H48.6596C48.3376 28.0477 48.0742 27.7827 48.0742 27.4588C48.0742 27.1348 48.3376 26.8698 48.6596 26.8698H51.5427C51.8647 26.8698 52.1281 27.1348 52.1281 27.4588C52.1281 27.7827 51.8647 28.0477 51.5427 28.0477Z" fill="white"/>
<path d="M57.0007 28.0477H54.1176C53.7957 28.0477 53.5322 27.7827 53.5322 27.4588C53.5322 27.1348 53.7957 26.8698 54.1176 26.8698H57.0007C57.3227 26.8698 57.5861 27.1348 57.5861 27.4588C57.5861 27.7827 57.3227 28.0477 57.0007 28.0477Z" fill="white"/>
<path d="M30.5566 32.8253C30.2347 32.8253 29.9712 32.5603 29.9712 32.2364V26.8845C29.9712 26.4944 29.6566 26.1778 29.2688 26.1778C28.8809 26.1778 28.5663 26.4944 28.5663 26.8845V32.2364C28.5663 32.5603 28.3029 32.8253 27.9809 32.8253C27.6589 32.8253 27.3955 32.5603 27.3955 32.2364V26.8845C27.3955 25.8466 28.2297 25 29.2688 25C30.3005 25 31.142 25.8466 31.142 26.8845V32.2364C31.142 32.5603 30.8786 32.8253 30.5566 32.8253Z" fill="white"/>
<path d="M27.9802 28.0477H25.0971C24.7751 28.0477 24.5117 27.7827 24.5117 27.4588C24.5117 27.1348 24.7751 26.8698 25.0971 26.8698H27.9802C28.3022 26.8698 28.5656 27.1348 28.5656 27.4588C28.5656 27.7827 28.3022 28.0477 27.9802 28.0477Z" fill="white"/>
<path d="M33.4401 28.0477H30.5571C30.2351 28.0477 29.9717 27.7827 29.9717 27.4588C29.9717 27.1348 30.2351 26.8698 30.5571 26.8698H33.4401C33.7621 26.8698 34.0255 27.1348 34.0255 27.4588C34.0255 27.7827 33.7621 28.0477 33.4401 28.0477Z" fill="white"/>
<path d="M26.5538 50.1322C25.1415 50.1322 24 48.9838 24 47.5704C24 47.3863 24.022 47.2097 24.0585 47.0256C24.9513 42.8811 26.8026 39.2519 28.1929 36.9404C28.3612 36.6606 28.7197 36.5723 28.9978 36.7416C29.2759 36.9109 29.3637 37.2716 29.1954 37.5514C27.849 39.7893 26.0635 43.286 25.2001 47.2759C25.0391 48.0194 25.5074 48.7556 26.2465 48.9175C26.605 48.9985 26.9782 48.9249 27.2855 48.7261C27.5929 48.5274 27.8051 48.2182 27.8782 47.8575C28.9393 42.9474 31.4638 38.8838 32.8761 36.9036C33.059 36.6385 33.4249 36.5649 33.6883 36.749C33.9517 36.933 34.0249 37.3011 33.842 37.5661C33.8346 37.5735 33.8346 37.5808 33.8273 37.5882C32.4663 39.4948 30.0369 43.4038 29.0198 48.1078C28.7783 49.2856 27.7465 50.1248 26.5538 50.1322Z" fill="white"/>
<path d="M55.5457 50.1322C54.3457 50.1322 53.3139 49.2856 53.0651 48.1078C52.048 43.4038 49.6186 39.5022 48.2576 37.5882C48.06 37.3305 48.1185 36.9625 48.3746 36.7637C48.6308 36.5649 48.9966 36.6238 49.1942 36.8815C49.2015 36.8888 49.2015 36.8962 49.2088 36.9036C50.6211 38.8838 53.1456 42.9474 54.2066 47.8575C54.3676 48.601 55.0994 49.0795 55.8384 48.9176C56.5775 48.7556 57.0531 48.0195 56.8921 47.2759C56.0287 43.2934 54.2432 39.7893 52.8968 37.5587C52.7285 37.279 52.8163 36.9183 53.0944 36.749C53.3724 36.5797 53.731 36.668 53.8993 36.9477C55.2896 39.2593 57.1409 42.8885 58.0337 47.033C58.3264 48.417 57.4556 49.7789 56.0799 50.0807C55.9116 50.1101 55.7287 50.1322 55.5457 50.1322Z" fill="white"/>
<path d="M41.0496 34.3049C39.7617 34.3049 38.7227 33.2596 38.7227 31.964C38.7227 30.6684 39.7617 29.623 41.0496 29.623C42.3375 29.623 43.3765 30.6684 43.3765 31.964C43.3765 33.2522 42.3302 34.2976 41.0496 34.3049ZM41.0496 30.7935C40.413 30.7935 39.8934 31.3162 39.8934 31.9566C39.8934 32.5971 40.413 33.1197 41.0496 33.1197C41.6862 33.1197 42.2058 32.5971 42.2058 31.9566C42.2058 31.3162 41.6862 30.7935 41.0496 30.7935Z" fill="white"/>
</svg>
