<svg width="82" height="81" viewBox="0 0 82 81" fill="none" xmlns="http://www.w3.org/2000/svg">
<ellipse cx="41" cy="40.5" rx="41" ry="40.5" fill="white"/>
<circle cx="41.5" cy="40.5" r="33.5" fill="black"/>
<path d="M30.0915 51.7481C30.0818 51.7481 30.072 51.7481 30.0622 51.7481C29.1884 51.6944 28.3291 51.631 27.5089 51.5675C25.976 51.4454 24.7408 50.2445 24.5749 48.7066C23.8084 41.6277 23.8084 34.4512 24.5749 27.3771C24.7408 25.8393 25.976 24.6383 27.5089 24.5163C36.2331 23.8279 45.0842 23.8279 53.8083 24.5163C55.3413 24.6383 56.5764 25.8393 56.7424 27.3771C57.5089 34.456 57.5089 41.6326 56.7424 48.7066C56.5764 50.2445 55.3413 51.4454 53.8083 51.5675C53.7888 51.5675 53.7644 51.5724 53.7449 51.5724C53.4764 51.5821 53.2469 51.3771 53.2371 51.1037C53.2274 50.8352 53.4324 50.6057 53.7058 50.596C53.7156 50.596 53.7254 50.596 53.7351 50.596C54.8043 50.513 55.6635 49.6733 55.7807 48.6041C56.5423 41.5984 56.5423 34.4902 55.7807 27.4845C55.6635 26.4154 54.8043 25.5757 53.74 25.4927C45.0647 24.8092 36.2673 24.8092 27.5919 25.4927C26.5179 25.5757 25.6587 26.4154 25.5415 27.4845C24.7799 34.4902 24.7799 41.5984 25.5415 48.6041C25.6587 49.6733 26.5179 50.513 27.5822 50.596C28.3975 50.6594 29.2518 50.7229 30.1208 50.7766C30.3893 50.7961 30.5944 51.0256 30.5748 51.2941C30.5602 51.5529 30.3454 51.7481 30.0915 51.7481Z" fill="white"/>
<path d="M40.638 52.0831C38.6656 52.0831 36.6982 52.0489 34.7405 51.9805C34.472 51.9708 34.262 51.7462 34.2718 51.4777C34.2816 51.2092 34.5061 50.9944 34.7747 51.009C40.3304 51.2043 45.9642 51.1213 51.5297 50.7551C51.7982 50.7356 52.0326 50.9407 52.0472 51.2092C52.0667 51.4777 51.8617 51.712 51.5932 51.7267C47.961 51.9659 44.2946 52.0831 40.638 52.0831Z" fill="white"/>
<path d="M28.5993 29.9591C27.4862 29.9591 26.583 29.0559 26.583 27.9428C26.583 26.8297 27.4862 25.9265 28.5993 25.9265C29.7124 25.9265 30.6156 26.8297 30.6156 27.9428C30.6156 29.0559 29.7075 29.9591 28.5993 29.9591ZM28.5993 26.9078C28.0281 26.9078 27.5594 27.3716 27.5594 27.9477C27.5594 28.5237 28.0232 28.9875 28.5993 28.9875C29.1754 28.9875 29.6391 28.5237 29.6391 27.9477C29.6391 27.3716 29.1705 26.9078 28.5993 26.9078Z" fill="white"/>
<path d="M37.7614 29.959C36.6483 29.959 35.7451 29.0559 35.7451 27.9428C35.7451 26.8297 36.6483 25.9265 37.7614 25.9265C38.8745 25.9265 39.7777 26.8297 39.7777 27.9428C39.7777 29.0559 38.8745 29.959 37.7614 29.959ZM37.7614 26.9078C37.1902 26.9078 36.7215 27.3716 36.7215 27.9476C36.7215 28.5237 37.1853 28.9875 37.7614 28.9875C38.3375 28.9875 38.8013 28.5237 38.8013 27.9476C38.8013 27.3716 38.3326 26.9078 37.7614 26.9078Z" fill="white"/>
<path d="M33.1784 29.9591C32.0653 29.9591 31.1621 29.0559 31.1621 27.9428C31.1621 26.8297 32.0653 25.9265 33.1784 25.9265C34.2915 25.9265 35.1947 26.8297 35.1947 27.9428C35.1947 29.0559 34.2915 29.9591 33.1784 29.9591ZM33.1784 26.9078C32.6072 26.9078 32.1385 27.3716 32.1385 27.9477C32.1385 28.5237 32.6023 28.9875 33.1784 28.9875C33.7545 28.9875 34.2182 28.5237 34.2182 27.9477C34.2182 27.3716 33.7545 26.9078 33.1784 26.9078Z" fill="white"/>
<path d="M56.6056 32.0282C56.5909 32.0282 56.5763 32.0282 56.5616 32.0282C47.4908 31.2276 38.298 31.1153 29.2272 31.6865C28.9587 31.706 28.7244 31.501 28.7097 31.2325C28.6951 30.9639 28.8953 30.7296 29.1638 30.715C38.2785 30.1389 47.525 30.2512 56.6446 31.0567C56.9131 31.0811 57.1133 31.3155 57.0889 31.584C57.0693 31.8378 56.8545 32.0282 56.6056 32.0282Z" fill="white"/>
<path d="M24.708 32.0282C24.459 32.0282 24.2442 31.8378 24.2247 31.584C24.2003 31.3155 24.4004 31.0762 24.6689 31.0567C25.4891 30.9835 26.2556 30.92 27.0025 30.8663C27.271 30.8468 27.5054 31.047 27.5249 31.3155C27.5444 31.584 27.3443 31.8183 27.0758 31.8378C26.3288 31.8915 25.5672 31.955 24.7519 32.0282C24.7373 32.0282 24.7226 32.0282 24.708 32.0282Z" fill="white"/>
<path d="M28.9449 57.3286C28.5348 57.3286 28.1247 57.1723 27.8123 56.8599L26.9433 55.986C26.3184 55.3611 26.3184 54.3457 26.9433 53.7208L40.6715 39.9925C40.9742 39.6899 41.3794 39.5239 41.8041 39.5239C42.2337 39.5239 42.6341 39.6899 42.9368 39.9925L43.8106 40.8664C44.1133 41.1691 44.2793 41.5743 44.2793 41.9991C44.2793 42.4238 44.1133 42.829 43.8106 43.1317L30.0824 56.8599C29.77 57.1723 29.355 57.3286 28.9449 57.3286ZM27.6316 55.2977L28.5055 56.1715C28.7496 56.4156 29.15 56.4156 29.3941 56.1715L43.1223 42.4433C43.2394 42.3261 43.3078 42.1699 43.3078 41.9991C43.3078 41.8331 43.2443 41.672 43.1223 41.5548L42.2484 40.6809C42.1312 40.5637 41.9701 40.4954 41.8041 40.4954C41.6381 40.4954 41.477 40.5589 41.3599 40.6809L27.6316 54.4091C27.3875 54.6532 27.3875 55.0535 27.6316 55.2977Z" fill="white"/>
<path d="M38.9871 47.7474C38.8601 47.7474 38.7381 47.6986 38.6404 47.6058L36.1897 45.155C35.9993 44.9646 35.9993 44.6571 36.1897 44.4667C36.3801 44.2763 36.6876 44.2763 36.878 44.4667L39.3288 46.9174C39.5192 47.1078 39.5192 47.4154 39.3288 47.6058C39.2409 47.7034 39.114 47.7474 38.9871 47.7474Z" fill="white"/>
<path d="M50.5775 47.3727C50.0844 47.3727 49.6841 47.0505 49.5815 46.5721L49.1861 44.7706C49.1812 44.756 49.1714 44.7413 49.1519 44.7364L47.3505 44.341C46.872 44.2336 46.5498 43.8333 46.5498 43.3451C46.5498 42.852 46.872 42.4517 47.3505 42.3491L49.1519 41.9537C49.1666 41.9488 49.1812 41.9391 49.1861 41.9195L49.5815 40.1181C49.6889 39.6396 50.0893 39.3174 50.5775 39.3174C51.0705 39.3174 51.4709 39.6396 51.5734 40.1181L51.9688 41.9195C51.9737 41.9342 51.9835 41.9488 52.003 41.9537L53.8045 42.3491C54.2829 42.4565 54.6051 42.8569 54.6051 43.3451C54.6051 43.8382 54.2829 44.2385 53.8045 44.341L52.003 44.7364C51.9884 44.7413 51.9737 44.7511 51.9688 44.7706L51.5734 46.5721C51.4709 47.0505 51.0705 47.3727 50.5775 47.3727ZM50.5775 40.2938C50.5433 40.2938 50.5384 40.3085 50.5335 40.328L50.1381 42.1295C50.0551 42.5151 49.7475 42.8227 49.3618 42.9057L47.5604 43.3011C47.5409 43.306 47.5262 43.3109 47.5262 43.3451C47.5262 43.3792 47.5409 43.3841 47.5604 43.389L49.3618 43.7845C49.7475 43.8674 50.0551 44.175 50.1381 44.5607L50.5335 46.3622C50.5384 46.3817 50.5433 46.3963 50.5775 46.3963C50.6116 46.3963 50.6165 46.3817 50.6214 46.3622L51.0168 44.5607C51.0998 44.175 51.4074 43.8674 51.7931 43.7845L53.5945 43.389C53.6141 43.3841 53.6287 43.3792 53.6287 43.3451C53.6287 43.3109 53.6141 43.306 53.5945 43.3011L51.7931 42.9057C51.4074 42.8227 51.0998 42.5151 51.0168 42.1295L50.6214 40.328C50.6165 40.3036 50.6116 40.2938 50.5775 40.2938Z" fill="white"/>
<path d="M34.9923 42.696C34.4064 42.696 33.928 42.3104 33.806 41.7392L33.2641 39.2737C33.2445 39.181 33.1713 39.1126 33.0785 39.0882L30.6131 38.5463C30.0419 38.4243 29.6562 37.9507 29.6562 37.3649C29.6562 36.779 30.0419 36.3006 30.6131 36.1786L33.0785 35.6366C33.1713 35.6171 33.2396 35.5439 33.2641 35.4511L33.806 32.9857C33.9329 32.4145 34.4113 32.0288 34.9923 32.0288C35.5781 32.0288 36.0566 32.4145 36.1786 32.9857L36.7205 35.4511C36.74 35.5439 36.8133 35.6122 36.906 35.6366L39.3715 36.1786C39.9426 36.3055 40.3283 36.779 40.3283 37.3649C40.3283 37.9507 39.9426 38.4292 39.3715 38.5512L36.906 39.0931C36.8133 39.1126 36.7449 39.1859 36.7205 39.2786L36.1835 41.744C36.0566 42.3152 35.5781 42.696 34.9923 42.696ZM34.9923 33.0052C34.9191 33.0052 34.7921 33.0297 34.758 33.1956L34.216 35.6611C34.1135 36.1249 33.7523 36.4861 33.2885 36.5886L30.8231 37.1305C30.6571 37.1647 30.6327 37.2917 30.6327 37.3649C30.6327 37.4381 30.6571 37.565 30.8231 37.5992L33.2885 38.1362C33.7523 38.2388 34.1135 38.6 34.216 39.0638L34.758 41.5292C34.7921 41.6952 34.9191 41.7196 34.9923 41.7196C35.0655 41.7196 35.1925 41.6952 35.2266 41.5292L35.7685 39.0638C35.8711 38.6 36.2323 38.2388 36.6961 38.1362L39.1615 37.5992C39.3275 37.565 39.3519 37.4381 39.3519 37.3649C39.3519 37.2917 39.3275 37.1647 39.1615 37.1305L36.6961 36.5886C36.2323 36.4861 35.8711 36.1249 35.7685 35.6611L35.2266 33.1956C35.1925 33.0297 35.0655 33.0052 34.9923 33.0052Z" fill="white"/>
<path d="M46.6425 35.2687C46.374 35.2687 46.1543 35.049 46.1543 34.7805V32.8228C46.1543 32.5543 46.374 32.3346 46.6425 32.3346C46.911 32.3346 47.1307 32.5543 47.1307 32.8228V34.7805C47.1307 35.0538 46.9159 35.2687 46.6425 35.2687Z" fill="white"/>
<path d="M46.6425 39.375C46.374 39.375 46.1543 39.1553 46.1543 38.8868V36.9291C46.1543 36.6606 46.374 36.4409 46.6425 36.4409C46.911 36.4409 47.1307 36.6606 47.1307 36.9291V38.8868C47.1307 39.1602 46.9159 39.375 46.6425 39.375Z" fill="white"/>
<path d="M49.6783 36.3433H47.7206C47.4521 36.3433 47.2324 36.1236 47.2324 35.8551C47.2324 35.5866 47.4521 35.3669 47.7206 35.3669H49.6783C49.9468 35.3669 50.1665 35.5866 50.1665 35.8551C50.1665 36.1236 49.9468 36.3433 49.6783 36.3433Z" fill="white"/>
<path d="M45.5689 36.3433H43.6112C43.3427 36.3433 43.123 36.1236 43.123 35.8551C43.123 35.5866 43.3427 35.3669 43.6112 35.3669H45.5689C45.8374 35.3669 46.0571 35.5866 46.0571 35.8551C46.0571 36.1236 45.8423 36.3433 45.5689 36.3433Z" fill="white"/>
</svg>
