<svg width="34" height="34" viewBox="0 0 34 34" fill="none" xmlns="http://www.w3.org/2000/svg">
<path d="M6.21424 28.3071C6.20428 28.3071 6.19432 28.3071 6.18436 28.3071C5.29288 28.2523 4.41633 28.1876 3.57963 28.1228C2.0158 27.9983 0.755769 26.7732 0.586437 25.2044C-0.195479 17.9828 -0.195479 10.6617 0.586437 3.44516C0.755769 1.87635 2.0158 0.651182 3.57963 0.526673C12.4795 -0.175558 21.5089 -0.175558 30.4088 0.526673C31.9727 0.651182 33.2327 1.87635 33.402 3.44516C34.1839 10.6667 34.1839 17.9878 33.402 25.2044C33.2327 26.7732 31.9727 27.9983 30.4088 28.1228C30.3889 28.1228 30.364 28.1278 30.3441 28.1278C30.0702 28.1378 29.8361 27.9286 29.8261 27.6497C29.8162 27.3758 30.0253 27.1417 30.3042 27.1318C30.3142 27.1318 30.3242 27.1318 30.3341 27.1318C31.4248 27.0471 32.3014 26.1905 32.4209 25.0998C33.1978 17.9529 33.1978 10.7015 32.4209 3.55473C32.3014 2.46403 31.4248 1.60741 30.3391 1.52274C21.489 0.825494 12.5144 0.825494 3.6643 1.52274C2.56862 1.60741 1.69208 2.46403 1.57255 3.55473C0.795612 10.7015 0.795612 17.9529 1.57255 25.0998C1.69208 26.1905 2.56862 27.0471 3.65434 27.1318C4.48606 27.1965 5.35762 27.2612 6.24412 27.316C6.51804 27.3359 6.72722 27.57 6.7073 27.8439C6.69236 28.1079 6.47322 28.3071 6.21424 28.3071Z" fill="white"/>
<path d="M16.9732 28.6487C14.9612 28.6487 12.9541 28.6138 10.957 28.5441C10.683 28.5341 10.4689 28.3051 10.4788 28.0311C10.4888 27.7572 10.7179 27.5381 10.9918 27.553C16.6595 27.7522 22.4068 27.6676 28.0844 27.294C28.3583 27.2741 28.5974 27.4833 28.6123 27.7572C28.6323 28.0311 28.4231 28.2702 28.1492 28.2851C24.4438 28.5292 20.7035 28.6487 16.9732 28.6487Z" fill="white"/>
<path d="M4.69458 6.07899C3.55906 6.07899 2.6377 5.15762 2.6377 4.0221C2.6377 2.88658 3.55906 1.96521 4.69458 1.96521C5.83011 1.96521 6.75147 2.88658 6.75147 4.0221C6.75147 5.15762 5.82512 6.07899 4.69458 6.07899ZM4.69458 2.96626C4.11188 2.96626 3.63377 3.4394 3.63377 4.02708C3.63377 4.61476 4.1069 5.0879 4.69458 5.0879C5.28227 5.0879 5.7554 4.61476 5.7554 4.02708C5.7554 3.4394 5.27729 2.96626 4.69458 2.96626Z" fill="white"/>
<path d="M14.0393 6.07899C12.9038 6.07899 11.9824 5.15762 11.9824 4.0221C11.9824 2.88658 12.9038 1.96521 14.0393 1.96521C15.1748 1.96521 16.0962 2.88658 16.0962 4.0221C16.0962 5.15762 15.1748 6.07899 14.0393 6.07899ZM14.0393 2.96626C13.4566 2.96626 12.9785 3.4394 12.9785 4.02708C12.9785 4.61476 13.4516 5.0879 14.0393 5.0879C14.627 5.0879 15.1001 4.61476 15.1001 4.02708C15.1001 3.4394 14.622 2.96626 14.0393 2.96626Z" fill="white"/>
<path d="M9.36255 6.07899C8.22703 6.07899 7.30566 5.15762 7.30566 4.0221C7.30566 2.88658 8.22703 1.96521 9.36255 1.96521C10.4981 1.96521 11.4194 2.88658 11.4194 4.0221C11.4194 5.15762 10.4981 6.07899 9.36255 6.07899ZM9.36255 2.96626C8.77985 2.96626 8.30174 3.4394 8.30174 4.02708C8.30174 4.61476 8.77487 5.0879 9.36255 5.0879C9.95023 5.0879 10.4234 4.61476 10.4234 4.02708C10.4234 3.4394 9.95023 2.96626 9.36255 2.96626Z" fill="white"/>
<path d="M33.2623 8.19003C33.2473 8.19003 33.2324 8.19003 33.2174 8.19003C23.9639 7.37325 14.5859 7.2587 5.3324 7.8414C5.05848 7.86132 4.81942 7.65215 4.80448 7.37823C4.78954 7.10431 4.99373 6.86525 5.26765 6.85031C14.566 6.26263 23.9988 6.37718 33.3021 7.19894C33.576 7.22384 33.7802 7.4629 33.7553 7.73682C33.7354 7.99579 33.5163 8.19003 33.2623 8.19003Z" fill="white"/>
<path d="M0.722651 8.19021C0.468653 8.19021 0.249517 7.99597 0.229595 7.73699C0.204694 7.46307 0.408888 7.21904 0.682808 7.19912C1.51951 7.12441 2.30142 7.05967 3.06342 7.00488C3.33734 6.98496 3.5764 7.18916 3.59632 7.46307C3.61624 7.73699 3.41205 7.97605 3.13813 7.99597C2.37613 8.05076 1.59919 8.1155 0.767474 8.19021C0.752533 8.19021 0.737592 8.19021 0.722651 8.19021Z" fill="white"/>
<path d="M5.04741 33.9998C4.62906 33.9998 4.21071 33.8404 3.89196 33.5217L3.00546 32.6302C2.36797 31.9927 2.36797 30.9568 3.00546 30.3193L17.0102 16.3145C17.319 16.0058 17.7324 15.8364 18.1657 15.8364C18.6039 15.8364 19.0123 16.0058 19.3211 16.3145L20.2126 17.206C20.5214 17.5148 20.6907 17.9282 20.6907 18.3615C20.6907 18.7948 20.5214 19.2081 20.2126 19.5169L6.20783 33.5217C5.88909 33.8404 5.46576 33.9998 5.04741 33.9998ZM3.70769 31.928L4.59917 32.8195C4.84819 33.0685 5.25658 33.0685 5.5056 32.8195L19.5104 18.8147C19.6299 18.6952 19.6996 18.5358 19.6996 18.3615C19.6996 18.1921 19.6349 18.0278 19.5104 17.9083L18.6189 17.0168C18.4994 16.8972 18.335 16.8275 18.1657 16.8275C17.9963 16.8275 17.832 16.8923 17.7125 17.0168L3.70769 31.0215C3.45867 31.2706 3.45867 31.6789 3.70769 31.928Z" fill="white"/>
<path d="M15.2885 24.2258C15.159 24.2258 15.0345 24.1759 14.9349 24.0813L12.4347 21.5812C12.2405 21.3869 12.2405 21.0732 12.4347 20.879C12.629 20.6847 12.9427 20.6847 13.137 20.879L15.6371 23.3791C15.8313 23.5733 15.8313 23.8871 15.6371 24.0813C15.5475 24.1809 15.418 24.2258 15.2885 24.2258Z" fill="white"/>
<path d="M27.1147 23.8434C26.6116 23.8434 26.2032 23.5147 26.0987 23.0267L25.6953 21.1889C25.6903 21.174 25.6803 21.159 25.6604 21.1541L23.8226 20.7506C23.3346 20.6411 23.0059 20.2327 23.0059 19.7347C23.0059 19.2316 23.3346 18.8232 23.8226 18.7187L25.6604 18.3152C25.6753 18.3103 25.6903 18.3003 25.6953 18.2804L26.0987 16.4426C26.2082 15.9546 26.6166 15.6259 27.1147 15.6259C27.6177 15.6259 28.0261 15.9546 28.1306 16.4426L28.5341 18.2804C28.539 18.2953 28.549 18.3103 28.5689 18.3152L30.4067 18.7187C30.8947 18.8282 31.2235 19.2366 31.2235 19.7347C31.2235 20.2377 30.8947 20.6461 30.4067 20.7506L28.5689 21.1541C28.554 21.159 28.539 21.169 28.5341 21.1889L28.1306 23.0267C28.0261 23.5147 27.6177 23.8434 27.1147 23.8434ZM27.1147 16.6219C27.0798 16.6219 27.0748 16.6369 27.0698 16.6568L26.6664 18.4945C26.5818 18.888 26.268 19.2018 25.8745 19.2864L24.0368 19.6898C24.0169 19.6948 24.0019 19.6998 24.0019 19.7347C24.0019 19.7695 24.0169 19.7745 24.0368 19.7795L25.8745 20.1829C26.268 20.2675 26.5818 20.5813 26.6664 20.9748L27.0698 22.8125C27.0748 22.8324 27.0798 22.8474 27.1147 22.8474C27.1495 22.8474 27.1545 22.8324 27.1595 22.8125L27.5629 20.9748C27.6476 20.5813 27.9613 20.2675 28.3548 20.1829L30.1925 19.7795C30.2124 19.7745 30.2274 19.7695 30.2274 19.7347C30.2274 19.6998 30.2124 19.6948 30.1925 19.6898L28.3548 19.2864C27.9613 19.2018 27.6476 18.888 27.5629 18.4945L27.1595 16.6568C27.1545 16.6319 27.1495 16.6219 27.1147 16.6219Z" fill="white"/>
<path d="M11.215 19.0729C10.6174 19.0729 10.1293 18.6794 10.0048 18.0967L9.45197 15.5816C9.43205 15.487 9.35734 15.4173 9.26272 15.3924L6.74763 14.8396C6.16493 14.7151 5.77148 14.232 5.77148 13.6343C5.77148 13.0367 6.16493 12.5486 6.74763 12.4241L9.26272 11.8713C9.35734 11.8514 9.42707 11.7767 9.45197 11.682L10.0048 9.16695C10.1343 8.58424 10.6224 8.1908 11.215 8.1908C11.8127 8.1908 12.3007 8.58424 12.4252 9.16695L12.9781 11.682C12.998 11.7767 13.0727 11.8464 13.1673 11.8713L15.6824 12.4241C16.2651 12.5536 16.6585 13.0367 16.6585 13.6343C16.6585 14.232 16.2651 14.72 15.6824 14.8446L13.1673 15.3974C13.0727 15.4173 13.003 15.492 12.9781 15.5866L12.4302 18.1017C12.3007 18.6844 11.8127 19.0729 11.215 19.0729ZM11.215 9.18687C11.1403 9.18687 11.0108 9.21177 10.976 9.3811L10.4231 11.8962C10.3186 12.3693 9.95001 12.7379 9.47687 12.8425L6.96179 13.3953C6.79246 13.4301 6.76756 13.5596 6.76756 13.6343C6.76756 13.709 6.79246 13.8385 6.96179 13.8734L9.47687 14.4212C9.95001 14.5258 10.3186 14.8944 10.4231 15.3675L10.976 17.8826C11.0108 18.0519 11.1403 18.0768 11.215 18.0768C11.2897 18.0768 11.4192 18.0519 11.4541 17.8826L12.0069 15.3675C12.1115 14.8944 12.48 14.5258 12.9532 14.4212L15.4682 13.8734C15.6376 13.8385 15.6625 13.709 15.6625 13.6343C15.6625 13.5596 15.6376 13.4301 15.4682 13.3953L12.9532 12.8425C12.48 12.7379 12.1115 12.3693 12.0069 11.8962L11.4541 9.3811C11.4192 9.21177 11.2897 9.18687 11.215 9.18687Z" fill="white"/>
<path d="M23.0986 11.4956C22.8247 11.4956 22.6006 11.2715 22.6006 10.9976V9.00048C22.6006 8.72656 22.8247 8.50244 23.0986 8.50244C23.3725 8.50244 23.5967 8.72656 23.5967 9.00048V10.9976C23.5967 11.2765 23.3775 11.4956 23.0986 11.4956Z" fill="white"/>
<path d="M23.0986 15.6847C22.8247 15.6847 22.6006 15.4606 22.6006 15.1867V13.1896C22.6006 12.9156 22.8247 12.6915 23.0986 12.6915C23.3725 12.6915 23.5967 12.9156 23.5967 13.1896V15.1867C23.5967 15.4656 23.3775 15.6847 23.0986 15.6847Z" fill="white"/>
<path d="M26.1963 12.5917H24.1992C23.9253 12.5917 23.7012 12.3675 23.7012 12.0936C23.7012 11.8197 23.9253 11.5956 24.1992 11.5956H26.1963C26.4703 11.5956 26.6944 11.8197 26.6944 12.0936C26.6944 12.3675 26.4703 12.5917 26.1963 12.5917Z" fill="white"/>
<path d="M22.003 12.5919H20.0058C19.7319 12.5919 19.5078 12.3678 19.5078 12.0939C19.5078 11.8199 19.7319 11.5958 20.0058 11.5958H22.003C22.2769 11.5958 22.501 11.8199 22.501 12.0939C22.501 12.3678 22.2819 12.5919 22.003 12.5919Z" fill="white"/>
</svg>
