<svg width="34" height="34" viewBox="0 0 34 34" fill="none" xmlns="http://www.w3.org/2000/svg">
<path d="M33.0711 7.55666C31.9223 4.69451 30.0429 2.15777 27.6257 0.218681C27.1941 -0.126636 26.5699 -0.053588 26.2245 0.371417C25.8792 0.803063 25.9523 1.42729 26.3773 1.77261C28.5289 3.49919 30.2023 5.75039 31.225 8.29377C31.4309 8.80511 32.0086 9.05082 32.5199 8.84495C33.0246 8.64573 33.2703 8.06135 33.0711 7.55666Z" fill="white"/>
<path d="M23.9135 4.90043C25.514 6.18872 26.7558 7.86882 27.5194 9.76142C27.7253 10.2728 28.3031 10.5185 28.8144 10.3126C29.3257 10.1067 29.5714 9.529 29.3656 9.01766C28.4757 6.81295 27.0214 4.8473 25.162 3.3465C24.7304 3.00119 24.1061 3.06759 23.7608 3.49924C23.4155 3.93089 23.4819 4.55511 23.9135 4.90043Z" fill="white"/>
<path d="M2.29789 8.29377C3.31392 5.75039 4.99402 3.49919 7.14561 1.77261C7.57725 1.42729 7.64366 0.803063 7.29834 0.371417C6.95303 -0.053588 6.3288 -0.126636 5.89716 0.218681C3.47994 2.15777 1.59398 4.69451 0.45178 7.55666C0.245918 8.06799 0.498265 8.64573 1.00296 8.85159C1.51429 9.05082 2.09203 8.80511 2.29789 8.29377Z" fill="white"/>
<path d="M4.15674 9.01766C3.95088 9.529 4.19659 10.1067 4.70792 10.3126C5.21926 10.5185 5.797 10.2661 6.00286 9.76142C6.76654 7.86882 8.00835 6.18872 9.60876 4.90043C10.0404 4.55511 10.1068 3.93089 9.7615 3.49924C9.41618 3.06759 8.79195 3.00119 8.36031 3.3465C6.49427 4.85394 5.03996 6.81295 4.15674 9.01766Z" fill="white"/>
<path d="M30.7064 16.9999H25.9583C26.2505 16.0768 26.4165 15.094 26.4165 14.0713C26.4165 8.7521 22.0868 4.42236 16.7676 4.42236C11.4484 4.42236 7.11862 8.7521 7.11862 14.0713C7.11862 15.094 7.27799 16.0768 7.57682 16.9999H2.81544C2.26426 16.9999 1.81934 17.4448 1.81934 17.996V33.0039C1.81934 33.5551 2.26426 34 2.81544 34H30.7064C31.2576 34 31.7025 33.5551 31.7025 33.0039V17.996C31.7025 17.4448 31.2576 16.9999 30.7064 16.9999ZM9.17059 13.0486C9.32333 11.9264 9.71513 10.8838 10.2929 9.97399C10.8706 10.2463 11.7339 10.5849 12.9027 10.8373C12.7699 11.5146 12.6769 12.2517 12.6304 13.0486H9.17059ZM20.8848 13.0486C20.8383 12.2517 20.7453 11.5146 20.6125 10.8373C21.7813 10.5849 22.6446 10.2463 23.2223 9.97399C23.8001 10.8904 24.1985 11.933 24.3446 13.0486H20.8848ZM20.0945 8.91148C19.8024 8.07475 19.4637 7.37083 19.1184 6.78645C20.1543 7.12513 21.0907 7.66967 21.8743 8.38686C21.436 8.55952 20.8449 8.7521 20.0945 8.91148ZM18.0758 9.18375C17.1992 9.24351 16.3093 9.24351 15.4461 9.18375C15.7648 8.3603 16.2031 7.55013 16.7609 6.85286C17.3187 7.55677 17.757 8.3603 18.0758 9.18375ZM13.4206 8.91148C12.6702 8.7521 12.0792 8.56616 11.6343 8.38686C12.4245 7.67631 13.3609 7.12513 14.3902 6.78645C14.0515 7.36419 13.7128 8.06811 13.4206 8.91148ZM14.875 11.1361C16.0703 11.249 17.3918 11.2556 18.6402 11.1361C18.7531 11.7139 18.8461 12.3447 18.8859 13.0486H14.6293C14.6757 12.3514 14.7621 11.7139 14.875 11.1361ZM18.8926 15.0408C18.8527 15.758 18.7598 16.4088 18.6469 16.9999H14.875C14.7554 16.4088 14.6691 15.758 14.6293 15.0408H18.8926ZM20.6723 16.9999C20.7785 16.3955 20.8516 15.7448 20.8848 15.0408H24.3512C24.2649 15.7248 24.0856 16.3823 23.8266 16.9999H20.6723ZM9.16395 15.0408H12.6304C12.6636 15.7448 12.7433 16.3955 12.8429 16.9999H9.68193C9.42958 16.3823 9.25028 15.7248 9.16395 15.0408ZM29.7103 32.0078H3.81155V18.9921H29.7103V32.0078Z" fill="white"/>
<path d="M6.77345 29.4975H8.7723C9.32348 29.4975 9.76841 29.0526 9.76841 28.5014C9.76841 27.9502 9.32348 27.5053 8.7723 27.5053H7.76955V22.4982C7.76955 21.947 7.32463 21.5021 6.77345 21.5021C6.22227 21.5021 5.77734 21.947 5.77734 22.4982V28.5014C5.77734 29.0526 6.22891 29.4975 6.77345 29.4975Z" fill="white"/>
<path d="M17.0334 29.2053C17.226 29.3979 17.485 29.4975 17.7373 29.4975C17.9897 29.4975 18.2487 29.3979 18.4413 29.2053L20.4335 27.2131C20.6194 27.0272 20.7257 26.7748 20.7257 26.5092V22.5248C20.7257 21.9736 20.2807 21.5287 19.7296 21.5287C19.1784 21.5287 18.7334 21.9736 18.7334 22.5248V26.0975L17.7373 27.0936L16.7412 26.0975V22.5248C16.7412 21.9736 16.2963 21.5287 15.7451 21.5287C15.194 21.5287 14.749 21.9736 14.749 22.5248V26.5092C14.749 26.7748 14.8553 27.0272 15.0412 27.2131L17.0334 29.2053Z" fill="white"/>
<path d="M23.7139 29.4975H26.7022C27.2534 29.4975 27.6983 29.0526 27.6983 28.5014C27.6983 27.9502 27.2534 27.5053 26.7022 27.5053H24.71V26.5557H26.7022C27.2534 26.5557 27.6983 26.1108 27.6983 25.5596C27.6983 25.0084 27.2534 24.5635 26.7022 24.5635H24.71V23.5209H26.742C27.2932 23.5209 27.7381 23.076 27.7381 22.5248C27.7381 21.9736 27.2932 21.5287 26.742 21.5287H23.7139C23.1627 21.5287 22.7178 21.9736 22.7178 22.5248V28.5014C22.7178 29.0526 23.1627 29.4975 23.7139 29.4975Z" fill="white"/>
<path d="M11.7608 29.4975C12.3119 29.4975 12.7569 29.0526 12.7569 28.5014V22.4982C12.7569 21.947 12.3119 21.5021 11.7608 21.5021C11.2096 21.5021 10.7646 21.947 10.7646 22.4982V28.5014C10.7646 29.0526 11.2096 29.4975 11.7608 29.4975Z" fill="white"/>
</svg>
