<svg width="38" height="34" viewBox="0 0 38 34" fill="none" xmlns="http://www.w3.org/2000/svg">
<path d="M27.4962 8.91371C27.1431 8.91371 26.8541 8.62304 26.8541 8.26778C26.8541 5.7729 25.2731 3.7463 23.3308 3.7463H14.0691C12.1269 3.7463 10.5458 5.7729 10.5458 8.26778C10.5458 8.62304 10.2569 8.91371 9.90378 8.91371C9.55065 8.91371 9.26172 8.62304 9.26172 8.26778C9.26172 5.06238 11.4206 2.46252 14.0691 2.46252H23.3308C25.9793 2.46252 28.1382 5.07045 28.1382 8.27586C28.1382 8.63112 27.8493 8.91371 27.4962 8.91371Z" fill="white"/>
<path d="M33.7485 14.0812H3.64397C2.14315 14.0812 0.915216 12.6359 0.915216 10.8516C0.90719 10.0442 1.17204 9.25291 1.66964 8.62313C2.19131 7.97721 2.88955 7.62195 3.64397 7.62195H9.89602C10.2491 7.62195 10.5381 7.91261 10.5381 8.26787C10.5381 8.62313 10.2491 8.9138 9.89602 8.9138H3.64397C3.28281 8.9138 2.9377 9.0995 2.67285 9.43054C2.35985 9.83424 2.19933 10.3348 2.20736 10.8516C2.20736 11.9012 2.86547 12.7894 3.65199 12.7894H33.7565C34.1177 12.7894 34.4628 12.6037 34.7276 12.2726C35.0406 11.8689 35.2012 11.3683 35.1931 10.8597C35.1931 9.81002 34.535 8.92187 33.7485 8.92187H27.4965C27.1433 8.92187 26.8544 8.63121 26.8544 8.27595C26.8544 7.92069 27.1433 7.63002 27.4965 7.63002H33.7485C35.2493 7.63002 36.4773 9.07528 36.4773 10.8597C36.4853 11.6671 36.2204 12.4583 35.7228 13.0881C35.2012 13.7259 34.5029 14.0812 33.7485 14.0812Z" fill="white"/>
<path d="M25.5293 32.474H22.5116C22.1585 32.474 21.8696 32.1833 21.8696 31.8281C21.8696 31.4728 22.1585 31.1821 22.5116 31.1821H25.5293C25.9226 31.1821 26.2436 30.8592 26.2436 30.4635V21.3237C26.2436 20.928 25.9226 20.6051 25.5293 20.6051H11.8615C11.4682 20.6051 11.1472 20.928 11.1472 21.3237V30.4635C11.1472 30.8592 11.4682 31.1821 11.8615 31.1821H14.8872C15.2403 31.1821 15.5292 31.4728 15.5292 31.8281C15.5292 32.1833 15.2403 32.474 14.8872 32.474H11.8695C10.77 32.474 9.87109 31.5697 9.87109 30.4635V21.3237C9.87109 20.2175 10.77 19.3132 11.8695 19.3132H25.5373C26.6369 19.3132 27.5357 20.2175 27.5357 21.3237V30.4635C27.5277 31.5697 26.6369 32.474 25.5293 32.474Z" fill="white"/>
<path d="M22.5994 20.6052C22.2864 20.6052 22.0135 20.371 21.9654 20.0561L21.6925 18.2718C21.6684 18.1184 21.5721 17.8519 21.3635 17.8519H16.0264C15.8177 17.8519 15.7214 18.1184 15.6973 18.2718L15.4244 20.0561C15.3763 20.4114 15.0633 20.6617 14.7101 20.6132C14.357 20.5648 14.1082 20.2499 14.1564 19.8947C14.1564 19.8866 14.1564 19.8704 14.1644 19.8624L14.4373 18.078C14.5737 17.1898 15.2318 16.5601 16.0344 16.5601H21.3715C22.1741 16.5601 22.8322 17.1818 22.9686 18.078L23.2415 19.8624C23.2977 20.2176 23.0569 20.5487 22.7038 20.5971C22.6636 20.6052 22.6315 20.6052 22.5994 20.6052Z" fill="white"/>
<path d="M18.7 34C15.273 34 12.4961 31.2063 12.4961 27.7587C12.4961 24.3111 15.273 21.5175 18.7 21.5175C22.127 21.5175 24.9039 24.3111 24.9039 27.7587C24.8959 31.2063 22.127 33.9919 18.7 34ZM18.7 22.8093C15.9873 22.8093 13.7802 25.0216 13.7802 27.7587C13.7802 30.4958 15.9793 32.7081 18.7 32.7081C21.4207 32.7081 23.6198 30.4958 23.6198 27.7587C23.6117 25.0297 21.4127 22.8174 18.7 22.8093Z" fill="white"/>
<path d="M18.7004 31.0931C16.8705 31.0931 15.3857 29.5994 15.3857 27.7585C15.3857 25.9177 16.8705 24.424 18.7004 24.424C20.5302 24.424 22.015 25.9177 22.015 27.7585C22.015 29.5994 20.5302 31.0931 18.7004 31.0931ZM18.7004 25.7158C17.5768 25.7158 16.6699 26.6282 16.6699 27.7585C16.6699 28.8889 17.5768 29.8013 18.7004 29.8013C19.824 29.8013 20.7309 28.8889 20.7309 27.7585C20.7309 26.6282 19.824 25.7158 18.7004 25.7158Z" fill="white"/>
<path d="M18.6997 17.8518C18.3465 17.8518 18.0576 17.5611 18.0576 17.2058V13.4352C18.0576 13.08 18.3465 12.7893 18.6997 12.7893C19.0528 12.7893 19.3417 13.08 19.3417 13.4352V17.2058C19.3417 17.5611 19.0528 17.8518 18.6997 17.8518Z" fill="white"/>
<path d="M33.0335 8.58274C32.6804 8.58274 32.3915 8.29208 32.3915 7.93682V2.06696C32.3915 1.63904 32.0464 1.29185 31.621 1.29185C31.1956 1.29185 30.8505 1.63904 30.8505 2.06696V7.93682C30.8505 8.29208 30.5616 8.58274 30.2085 8.58274C29.8553 8.58274 29.5664 8.29208 29.5664 7.93682V2.06696C29.5664 0.928519 30.4894 0 31.621 0C32.7526 0 33.6756 0.928519 33.6756 2.06696V7.93682C33.6756 8.29208 33.3867 8.58274 33.0335 8.58274Z" fill="white"/>
<path d="M30.2085 3.34276H27.0464C26.6932 3.34276 26.4043 3.05209 26.4043 2.69683C26.4043 2.34157 26.6932 2.0509 27.0464 2.0509H30.2085C30.5616 2.0509 30.8506 2.34157 30.8506 2.69683C30.8506 3.05209 30.5616 3.34276 30.2085 3.34276Z" fill="white"/>
<path d="M36.1958 3.34276H33.0337C32.6805 3.34276 32.3916 3.05209 32.3916 2.69683C32.3916 2.34157 32.6805 2.0509 33.0337 2.0509H36.1958C36.5489 2.0509 36.8379 2.34157 36.8379 2.69683C36.8379 3.05209 36.5489 3.34276 36.1958 3.34276Z" fill="white"/>
<path d="M7.19075 8.58274C6.83762 8.58274 6.54869 8.29208 6.54869 7.93682V2.06696C6.54869 1.63904 6.20358 1.29185 5.77822 1.29185C5.35286 1.29185 5.00775 1.63904 5.00775 2.06696V7.93682C5.00775 8.29208 4.71882 8.58274 4.36569 8.58274C4.01256 8.58274 3.72363 8.29208 3.72363 7.93682V2.06696C3.72363 0.928519 4.63857 0 5.77822 0C6.90985 0 7.83281 0.928519 7.83281 2.06696V7.93682C7.83281 8.29208 7.54388 8.58274 7.19075 8.58274Z" fill="white"/>
<path d="M4.36572 3.34288H1.20358C0.85045 3.34288 0.561523 3.05221 0.561523 2.69695C0.561523 2.34169 0.85045 2.05103 1.20358 2.05103H4.36572C4.71885 2.05103 5.00778 2.34169 5.00778 2.69695C5.00778 3.05221 4.71885 3.34288 4.36572 3.34288Z" fill="white"/>
<path d="M10.353 3.34276H7.19089C6.83775 3.34276 6.54883 3.05209 6.54883 2.69683C6.54883 2.34157 6.83775 2.0509 7.19089 2.0509H10.353C10.7062 2.0509 10.9951 2.34157 10.9951 2.69683C10.9951 3.05209 10.7062 3.34276 10.353 3.34276Z" fill="white"/>
<path d="M2.80098 27.5649C1.25201 27.5649 0 26.3053 0 24.7551C0 24.5533 0.0240772 24.3595 0.0642059 24.1576C1.04335 19.6119 3.07386 15.6314 4.59875 13.0962C4.78334 12.7893 5.1766 12.6925 5.48158 12.8782C5.78656 13.0639 5.88286 13.4595 5.69827 13.7663C4.22154 16.2208 2.26326 20.056 1.31622 24.4322C1.13965 25.2476 1.6533 26.055 2.4639 26.2327C2.85716 26.3215 3.26647 26.2408 3.60356 26.0228C3.94064 25.8048 4.17338 25.4656 4.25364 25.07C5.41737 19.6846 8.18625 15.2277 9.73522 13.0558C9.93586 12.7651 10.3371 12.6844 10.6261 12.8862C10.915 13.0881 10.9953 13.4918 10.7946 13.7825C10.7866 13.7905 10.7866 13.7986 10.7786 13.8067C9.28578 15.8979 6.62123 20.1852 5.50565 25.3445C5.24081 26.6364 4.10918 27.5568 2.80098 27.5649Z" fill="white"/>
<path d="M34.5985 27.5648C33.2823 27.5648 32.1507 26.6363 31.8778 25.3445C30.7622 20.1851 28.0977 15.9059 26.6049 13.8066C26.3882 13.524 26.4524 13.1203 26.7333 12.9023C27.0142 12.6843 27.4155 12.7489 27.6322 13.0315C27.6402 13.0396 27.6402 13.0477 27.6483 13.0557C29.1972 15.2277 31.9661 19.6845 33.1298 25.07C33.3064 25.8854 34.109 26.4102 34.9196 26.2326C35.7302 26.055 36.2518 25.2476 36.0753 24.4321C35.1282 20.064 33.17 16.2208 31.6932 13.7743C31.5086 13.4675 31.6049 13.0719 31.9099 12.8862C32.2149 12.7005 32.6082 12.7974 32.7928 13.1042C34.3176 15.6394 36.3482 19.62 37.3273 24.1657C37.6483 25.6836 36.6933 27.1773 35.1844 27.5083C34.9998 27.5406 34.7992 27.5648 34.5985 27.5648Z" fill="white"/>
<path d="M18.6996 10.2057C17.2871 10.2057 16.1475 9.05915 16.1475 7.63811C16.1475 6.21708 17.2871 5.07056 18.6996 5.07056C20.1122 5.07056 21.2518 6.21708 21.2518 7.63811C21.2518 9.05108 20.1041 10.1976 18.6996 10.2057ZM18.6996 6.35433C18.0014 6.35433 17.4316 6.92759 17.4316 7.63004C17.4316 8.33248 18.0014 8.90574 18.6996 8.90574C19.3979 8.90574 19.9677 8.33248 19.9677 7.63004C19.9677 6.92759 19.3979 6.35433 18.6996 6.35433Z" fill="white"/>
</svg>
