<svg width="31" height="34" viewBox="0 0 31 34" fill="none" xmlns="http://www.w3.org/2000/svg">
<path fill-rule="evenodd" clip-rule="evenodd" d="M10.961 31.45H7.71035C6.65984 31.45 6.65984 29.8563 7.71035 29.8563H10.961C11.9917 29.8563 11.9917 31.45 10.961 31.45ZM29.4672 34H0.792838C0.356777 34 0 33.6414 0 33.2031V16.0371C0 15.5988 0.356777 15.2402 0.792838 15.2402H1.44693V12.2719C1.44693 11.8336 1.80371 11.475 2.23977 11.475H4.26151V9.30352H0.792838C0.356777 9.30352 0 8.94492 0 8.50664V0.796875C0 0.358594 0.356777 0 0.792838 0H13.062C13.4981 0 13.8549 0.358594 13.8549 0.796875V8.50664C13.8549 8.94492 13.4981 9.30352 13.062 9.30352H9.57352V11.475H11.6151C12.0511 11.475 12.4079 11.8336 12.4079 12.2719V15.2402H14.0332L15.8766 11.8934C16.0153 11.6344 16.2928 11.475 16.5703 11.475H25.9456C26.2231 11.475 26.5006 11.6344 26.6394 11.8934L28.4827 15.2402H29.4738C29.9098 15.2402 30.2666 15.5988 30.2666 16.0371V33.2031C30.26 33.6414 29.9032 34 29.4672 34ZM1.58568 32.4062H28.6743V16.834C28.1193 16.834 27.604 16.9336 27.3265 16.4355L25.4633 13.0688H17.0394L15.1961 16.4355C15.0573 16.6746 14.7798 16.834 14.5023 16.834H1.58568V18.348H4.0633C4.49936 18.348 4.85614 18.7066 4.85614 19.1449V30.082C4.85614 30.5203 4.49936 30.8789 4.0633 30.8789H1.58568V32.4062ZM3.03261 15.2402H10.8222V13.0688H3.03261V15.2402ZM5.03452 7.70977H12.2692V1.59375H1.58568V7.70977H5.03452ZM5.84718 11.475H7.98785V9.30352H5.84718V11.475ZM23.8182 16.834H18.7044C17.6539 16.834 17.6539 15.2402 18.7044 15.2402H23.8182C24.8489 15.2402 24.8489 16.834 23.8182 16.834ZM20.845 28.4617C18.7242 28.4617 16.9998 26.7484 16.9998 24.6168C16.9998 22.4852 18.7242 20.752 20.845 20.752C22.9461 20.752 24.6705 22.4852 24.6705 24.6168C24.6705 26.7484 22.9461 28.4617 20.845 28.4617ZM20.845 22.3457C19.5963 22.3457 18.5855 23.3617 18.5855 24.6168C18.5855 25.852 19.5963 26.868 20.845 26.868C22.0739 26.868 23.0848 25.852 23.0848 24.6168C23.0848 23.3617 22.0739 22.3457 20.845 22.3457ZM1.58568 29.2785H3.27046V19.9352H1.58568V29.2785ZM20.845 31.45C17.0791 31.45 14.0266 28.382 14.0266 24.6168C14.0266 20.8316 17.0791 17.7637 20.845 17.7637C24.5912 17.7637 27.6436 20.8516 27.6436 24.6168C27.6436 28.382 24.5912 31.45 20.845 31.45ZM20.845 19.3574C17.9512 19.3574 15.6123 21.7281 15.6123 24.6168C15.6123 27.5055 17.9512 29.8563 20.845 29.8563C23.7191 29.8563 26.058 27.5055 26.058 24.6168C26.058 21.7281 23.7191 19.3574 20.845 19.3574ZM9.4546 22.6645C8.10677 22.6645 7.01662 21.5688 7.01662 20.2141C7.01662 18.8594 8.10677 17.7637 9.4546 17.7637C10.7826 17.7637 11.8728 18.8594 11.8728 20.2141C11.8728 21.5688 10.7826 22.6645 9.4546 22.6645ZM9.4546 19.3574C8.34463 19.3574 8.34463 21.0707 9.4546 21.0707C10.5646 21.0707 10.5646 19.3574 9.4546 19.3574ZM10.961 28.4617H7.71035C6.65984 28.4617 6.65984 26.868 7.71035 26.868H10.961C11.9917 26.868 11.9917 28.4617 10.961 28.4617Z" fill="white"/>
</svg>
