<svg width="39" height="34" viewBox="0 0 39 34" fill="none" xmlns="http://www.w3.org/2000/svg">
<path d="M37.664 5.8698C37.2677 5.58566 36.7816 5.51089 36.318 5.66044L33.8654 6.46052H31.8615C31.3231 6.46052 30.8819 6.90169 30.8819 7.44007V7.65692H28.9004C28.5938 7.65692 28.3396 7.91115 28.3396 8.21773V9.50385H27.0534V7.07368C27.0534 6.10161 26.2683 5.31647 25.2962 5.31647H22.5445V3.78359C22.5445 3.32747 22.9184 2.96107 23.3671 2.96107H24.3316C24.5859 4.01539 25.5355 4.80053 26.6646 4.80053H32.4896C33.8131 4.80053 34.8898 3.72377 34.8898 2.40026C34.8898 1.07675 33.8131 0 32.4896 0H32.2129C31.9063 0 31.6521 0.254234 31.6521 0.560809C31.6521 0.867385 31.9063 1.12162 32.2129 1.12162H32.4896C33.1924 1.12162 33.7682 1.69738 33.7682 2.40026C33.7682 3.10314 33.1924 3.67891 32.4896 3.67891H26.6646C25.9617 3.67891 25.386 3.10314 25.386 2.40026C25.386 1.69738 25.9617 1.12162 26.6646 1.12162H29.9697C30.2762 1.12162 30.5305 0.867385 30.5305 0.560809C30.5305 0.254234 30.2762 0 29.9697 0H26.6646C25.5355 0 24.5859 0.785133 24.3316 1.83945H23.3671C22.2903 1.83945 21.4229 2.71432 21.4229 3.78359V5.309H19.3666V2.93864C19.3666 2.1236 18.7086 1.46558 17.8936 1.46558H9.53376C8.77854 1.46558 8.06818 1.80207 7.58214 2.38531L3.76864 7.01386H1.7572C0.785133 7.01386 0 7.79899 0 8.77106V18.23C0 19.2021 0.785133 19.9872 1.7572 19.9872H3.72377C4.03035 19.9872 4.28458 19.733 4.28458 19.4264C4.28458 19.1199 4.03035 18.8656 3.72377 18.8656H1.7572C1.40576 18.8656 1.12162 18.5815 1.12162 18.23V8.77106C1.12162 8.41962 1.40576 8.13547 1.7572 8.13547H11.9565C12.3079 8.13547 12.6369 7.94854 12.8164 7.64944L13.5566 6.43061H25.2962C25.6477 6.43061 25.9318 6.71476 25.9318 7.0662V11.2012C25.9318 11.5078 26.1861 11.762 26.4926 11.762C26.7992 11.762 27.0534 11.5078 27.0534 11.2012V10.6255H28.3396V15.3662H27.0534V13.4445C27.0534 13.1379 26.7992 12.8837 26.4926 12.8837C26.1861 12.8837 25.9318 13.1379 25.9318 13.4445V18.23C25.9318 18.5815 25.6477 18.8656 25.2962 18.8656H19.9199C19.9125 18.8656 19.9125 18.8656 19.905 18.8656H9.8852C9.87772 18.8656 9.87772 18.8656 9.87024 18.8656H5.96701C5.66044 18.8656 5.4062 19.1199 5.4062 19.4264C5.4062 19.733 5.66044 19.9872 5.96701 19.9872H9.32439V20.4583C9.32439 21.8043 10.3039 22.9334 11.5826 23.1652L8.61403 23.4269C8.46448 23.4418 8.32989 23.5091 8.23268 23.6213L5.14449 27.3077C4.62855 26.9637 3.92567 27.0534 3.51441 27.5395L1.60018 29.8201C1.16648 30.336 1.23378 31.1137 1.74973 31.5474L2.40774 32.1007C2.63954 32.2951 2.91621 32.3849 3.19287 32.3849C3.54432 32.3849 3.89576 32.2353 4.13503 31.9437L6.05674 29.678C6.46052 29.192 6.43061 28.4816 5.99692 28.033L8.93556 24.5261L12.3303 24.227C12.3752 24.3765 12.435 24.5186 12.5023 24.6532H11.291C10.6404 24.6532 10.117 25.1841 10.117 25.8271V26.7693C10.117 27.2703 10.4311 27.6965 10.8722 27.8685L8.6589 33.2149C8.53926 33.499 8.67385 33.828 8.96547 33.9477C9.03277 33.9776 9.10754 33.9925 9.18232 33.9925C9.39917 33.9925 9.60853 33.8654 9.69826 33.6486L12.0611 27.9507H14.3492V33.4392C14.3492 33.7458 14.6035 34 14.9101 34C15.2166 34 15.4709 33.7458 15.4709 33.4392V27.9507H17.759L20.1218 33.6486C20.2116 33.8654 20.4209 33.9925 20.6378 33.9925C20.7126 33.9925 20.7799 33.9776 20.8546 33.9477C21.1388 33.828 21.2734 33.499 21.1612 33.2149L18.9778 27.9433H19.0077C19.6582 27.9433 20.1817 27.4124 20.1817 26.7693V25.8271C20.1817 25.1766 19.6508 24.6532 19.0077 24.6532H17.3028C17.4823 24.2943 17.587 23.883 17.587 23.4568C17.587 23.3745 17.5795 23.2923 17.5795 23.21H17.7365C19.2545 23.21 20.4882 21.9762 20.4882 20.4583V19.9872H25.3187C26.2907 19.9872 27.0759 19.2021 27.0759 18.23V16.4878H28.3396V17.7739C28.3396 18.0805 28.5938 18.3347 28.9004 18.3347H30.8819V18.5516C30.8819 19.09 31.3231 19.5311 31.8615 19.5311H33.8654L36.318 20.3312C36.475 20.3835 36.6321 20.406 36.7891 20.406C37.0957 20.406 37.4022 20.3088 37.664 20.1218C38.0603 19.8377 38.2846 19.3965 38.2846 18.9105V7.08115C38.2846 6.59512 38.0603 6.15395 37.664 5.8698ZM13.4968 5.31647C13.1454 5.31647 12.8164 5.50341 12.6369 5.80251L11.8892 7.01386H5.22674L8.44953 3.09567C8.71872 2.76666 9.11502 2.5872 9.53376 2.5872H17.8936C18.088 2.5872 18.245 2.74423 18.245 2.93864V5.31647H13.4968ZM5.20431 28.9527L3.29008 31.2333C3.25269 31.2782 3.1854 31.2857 3.14053 31.2483L2.48252 30.695C2.43765 30.6576 2.43017 30.5903 2.46756 30.5454L4.37431 28.2648C4.39675 28.2424 4.42666 28.2274 4.45657 28.2274C4.479 28.2274 4.50143 28.2349 4.52386 28.2498L5.18188 28.8032C5.23422 28.8406 5.2417 28.9079 5.20431 28.9527ZM15.2839 23.4119C15.254 23.1053 14.9848 22.8735 14.6783 22.9035L13.4146 23.0156C13.609 22.38 14.1997 21.9164 14.8951 21.9164C15.7475 21.9164 16.4429 22.6118 16.4429 23.4643C16.4429 24.3167 15.7475 25.0121 14.8951 25.0121C14.2819 25.0121 13.751 24.6532 13.4968 24.1298L14.7755 24.0176C15.082 23.9952 15.3138 23.7185 15.2839 23.4119ZM19.0376 25.8346V26.7768C19.0376 26.8067 19.0152 26.8291 18.9853 26.8291H11.291C11.2611 26.8291 11.2386 26.8067 11.2386 26.7768V25.8346C11.2386 25.8047 11.2611 25.7823 11.291 25.7823H13.5716C13.9604 26.0066 14.4165 26.1337 14.8951 26.1337C15.3737 26.1337 15.8298 26.0066 16.2186 25.7823H18.9853C19.0152 25.7823 19.0376 25.8047 19.0376 25.8346ZM19.3367 20.4658C19.3367 21.3631 18.6039 22.0959 17.7066 22.0959H17.1832C16.7196 21.3182 15.8597 20.7873 14.8876 20.7873C13.9156 20.7873 13.0631 21.3108 12.592 22.0959H12.0686C11.1713 22.0959 10.4385 21.3631 10.4385 20.4658V19.9947H19.3292V20.4658H19.3367ZM29.4612 11.6499H30.8819V14.3343H29.4612V11.6499ZM29.4612 8.77854H30.8819V10.5283H29.4612V8.77854ZM29.4612 17.2131V15.4634H30.8819V17.2131H29.4612ZM37.163 18.9105C37.163 19.0301 37.1031 19.1423 37.0059 19.2171C36.9087 19.2918 36.7816 19.3068 36.6695 19.2694L34.1271 18.4394C34.0673 18.4245 34.015 18.4095 33.9551 18.4095H32.0035V7.58214H33.9551C34.015 7.58214 34.0748 7.57466 34.1271 7.55223L36.6695 6.72223C36.7891 6.68485 36.9087 6.70728 37.0059 6.77458C37.1031 6.84187 37.163 6.96151 37.163 7.08115V18.9105Z" fill="white"/>
</svg>
