<svg width="26" height="26" viewBox="0 0 26 26" fill="none" xmlns="http://www.w3.org/2000/svg">
<path d="M26.0003 12.5588C26.0003 5.60532 20.395 0 13.4416 0C6.48813 0 0.882812 5.60532 0.882812 12.5588C0.882812 18.8027 5.49479 23.9823 11.4549 24.9756V16.1774H8.26197V12.5588H11.4549V9.79157C11.4549 6.66962 13.2997 4.89579 16.2088 4.89579C17.5569 4.89579 19.0469 5.10865 19.0469 5.10865V8.2306H17.4859C15.9249 8.2306 15.4283 9.22395 15.4283 10.2173V12.5588H18.905L18.3374 16.1774H15.4283V24.9756C21.3884 23.9823 26.0003 18.8027 26.0003 12.5588Z" fill="white"/>
<path d="M18.3371 16.1777L18.9047 12.5591H15.428V10.2176C15.428 9.22425 15.9247 8.2309 17.4857 8.2309H19.0466V5.1799C19.0466 5.1799 17.6276 4.96704 16.2085 4.96704C13.3704 4.96704 11.4546 6.66992 11.4546 9.86283V12.63H8.26172V16.2486H11.4546V25.0469C12.0932 25.1178 12.7318 25.1888 13.4413 25.1888C14.0799 25.1888 14.7894 25.1178 15.428 25.0469V16.1777H18.3371Z" fill="black"/>
</svg>
