<svg width="26" height="26" viewBox="0 0 26 26" fill="none" xmlns="http://www.w3.org/2000/svg">
<path d="M12.674 25.8275C19.61 25.8275 25.2328 20.2047 25.2328 13.2687C25.2328 6.33271 19.61 0.709961 12.674 0.709961C5.73798 0.709961 0.115234 6.33271 0.115234 13.2687C0.115234 20.2047 5.73798 25.8275 12.674 25.8275Z" fill="white"/>
<path d="M16.5761 8.51416C16.0794 8.51416 15.7246 8.86893 15.7246 9.3656C15.7246 9.86228 16.0794 10.217 16.5761 10.217C17.0727 10.217 17.4275 9.86228 17.4275 9.3656C17.4275 8.86893 17.0727 8.51416 16.5761 8.51416Z" fill="black"/>
<path d="M12.7446 9.57861C10.7579 9.57861 9.12598 11.2105 9.12598 13.1972C9.12598 15.1839 10.7579 16.8159 12.7446 16.8159C14.7313 16.8159 16.3632 15.1839 16.3632 13.1972C16.3632 11.2105 14.7313 9.57861 12.7446 9.57861ZM12.7446 15.5387C11.4674 15.5387 10.4031 14.4744 10.4031 13.1972C10.4031 11.9201 11.4674 10.8558 12.7446 10.8558C14.0218 10.8558 15.0861 11.9201 15.0861 13.1972C15.0151 14.5454 14.0218 15.5387 12.7446 15.5387Z" fill="black"/>
<path d="M15.5832 20.5768H9.69403C7.28162 20.5768 5.29492 18.5901 5.29492 16.1777V10.2885C5.29492 7.8761 7.28162 5.8894 9.69403 5.8894H15.5832C17.9956 5.8894 19.9823 7.8761 19.9823 10.2885V16.1777C20.0532 18.5901 18.0665 20.5768 15.5832 20.5768ZM9.69403 7.23752C7.99115 7.23752 6.64304 8.58563 6.64304 10.2885V16.1777C6.64304 17.8805 7.99115 19.2286 9.69403 19.2286H15.5832C17.2861 19.2286 18.6342 17.8805 18.6342 16.1777V10.2885C18.6342 8.58563 17.2861 7.23752 15.5832 7.23752H9.69403Z" fill="black"/>
</svg>
