<svg width="25" height="14" viewBox="0 0 25 14" fill="none" xmlns="http://www.w3.org/2000/svg">
<g clip-path="url(#clip0_336_3)">
<mask id="mask0_336_3" style="mask-type:luminance" maskUnits="userSpaceOnUse" x="0" y="0" width="25" height="14">
<path d="M25 0H0V14H25V0Z" fill="white"/>
</mask>
<g mask="url(#mask0_336_3)">
<path d="M25 0H0V14H25V0Z" fill="#3D9635"/>
</g>
<mask id="mask1_336_3" style="mask-type:luminance" maskUnits="userSpaceOnUse" x="0" y="0" width="25" height="14">
<path d="M25 0H0V14H25V0Z" fill="white"/>
</mask>
<g mask="url(#mask1_336_3)">
<mask id="mask2_336_3" style="mask-type:luminance" maskUnits="userSpaceOnUse" x="0" y="0" width="25" height="14">
<path d="M25 0H0V14H25V0Z" fill="white"/>
</mask>
<g mask="url(#mask2_336_3)">
<path d="M7.06798 3.96279C7.03784 4.29543 7.0077 4.85948 7.30909 4.91734C7.65568 4.94626 7.45978 4.35329 7.59541 4.23758C7.62554 4.17973 7.67075 4.17973 7.67075 4.25205V4.77271C7.67075 4.9318 7.77624 4.98965 7.86665 5.01858C7.95707 5.01858 8.01735 5.01858 8.06255 5.10535C8.07762 5.39461 8.09269 5.69833 8.10776 5.98758C8.10776 5.98758 8.31873 6.04543 8.3338 5.49585C8.34887 5.1632 8.27352 4.90287 8.31873 4.83056C8.31873 4.77271 8.40915 4.75824 8.45436 4.80163C8.54477 4.85948 8.58998 4.94626 8.7256 4.90287C8.93657 4.84502 9.0722 4.74378 9.0722 4.58469C9.05713 4.44006 9.04206 4.28097 8.96671 4.13634C8.98178 4.10742 8.92151 4.0351 8.93657 4.00618C8.98178 4.06403 9.04206 4.06403 9.04206 4.00618C9.01192 3.89048 8.95164 3.77477 8.86123 3.73139C8.78588 3.67353 8.66533 3.67353 8.63519 3.81816C8.62012 3.97725 8.69547 4.16527 8.81602 4.3099C8.84616 4.36775 8.8763 4.46899 8.86123 4.55577C8.80095 4.58469 8.74067 4.57023 8.6804 4.52684C8.6804 4.52684 8.51463 4.39667 8.51463 4.38221C8.55984 4.10742 8.5297 4.06403 8.49956 3.99172C8.4845 3.89048 8.42422 3.84709 8.37901 3.77477C8.3338 3.73139 8.27352 3.73139 8.24339 3.77477C8.16804 3.90494 8.19818 4.17973 8.25846 4.29544C8.30366 4.41114 8.36394 4.48345 8.3338 4.48345C8.30366 4.5413 8.25846 4.52684 8.22832 4.45453C8.18311 4.3099 8.16804 4.07849 8.16804 3.97725C8.15297 3.84709 8.1379 3.58676 8.04748 3.51444C8.00228 3.44213 7.91186 3.48552 7.89679 3.54337C7.89679 3.67353 7.89679 3.78924 7.91186 3.90494C7.97214 4.10742 7.98721 4.28097 8.01735 4.49791C8.03242 4.77271 7.85158 4.61362 7.85158 4.48345C7.89679 4.3099 7.88172 4.02064 7.85158 3.94833C7.82144 3.87601 7.79131 3.86155 7.71596 3.87601C7.65568 3.87601 7.52006 4.02064 7.47485 4.26651C7.47485 4.26651 7.44471 4.39667 7.42964 4.49791C7.41457 4.62808 7.32416 4.71486 7.26388 4.48345C7.18853 4.28097 7.15839 3.87601 7.06798 3.96279Z" fill="white"/>
</g>
<mask id="mask3_336_3" style="mask-type:luminance" maskUnits="userSpaceOnUse" x="0" y="0" width="25" height="14">
<path d="M25 0H0V14H25V0Z" fill="white"/>
</mask>
<g mask="url(#mask3_336_3)">
<path d="M8.03209 5.30796C7.7307 5.45259 7.42932 5.58275 7.12793 5.72738C7.143 5.5249 7.56494 5.17779 7.85126 5.16333C8.01702 5.17779 7.97181 5.23564 8.03209 5.30796Z" fill="white"/>
</g>
<mask id="mask4_336_3" style="mask-type:luminance" maskUnits="userSpaceOnUse" x="0" y="0" width="25" height="14">
<path d="M25 0H0V14H25V0Z" fill="white"/>
</mask>
<g mask="url(#mask4_336_3)">
<path d="M9.19194 3.45654C9.17687 3.45654 9.1618 3.47101 9.13166 3.47101C9.05632 3.49993 8.98097 3.55778 9.01111 3.67349C9.10152 4.17968 9.1618 4.58464 9.25222 5.09084C9.26729 5.14869 9.20701 5.23547 9.14673 5.22101C9.02618 5.14869 8.99604 4.9896 8.80014 5.00406C8.66451 5.00406 8.49875 5.14869 8.46861 5.29332C8.43847 5.40902 8.43847 5.52472 8.46861 5.62596C8.5741 5.74167 8.69465 5.7272 8.80014 5.69828C8.89055 5.66935 8.95083 5.58258 8.98097 5.59704C8.99604 5.62596 8.98097 5.90076 8.5741 6.10324C8.33299 6.20448 8.12202 6.2334 8.01653 6.04539C7.95626 5.92968 8.01653 5.46687 7.86584 5.56811C7.38362 6.75406 8.99604 6.92762 9.17687 5.6115C9.19194 5.56811 9.22208 5.53919 9.25222 5.55365C9.26729 5.55365 9.26729 5.56811 9.28236 5.59704C9.25222 6.78299 8.04667 6.8553 7.8357 6.49373C7.79049 6.40696 7.77542 6.20448 7.76035 6.08877C7.74528 6.01646 7.73022 5.97307 7.71515 5.95861C7.66994 5.92968 7.59459 6.01646 7.57952 6.17555C7.56445 6.30572 7.56445 6.33464 7.56445 6.46481C7.62473 7.40489 9.17687 6.99993 9.43305 6.2334C9.5536 5.82844 9.43305 5.53919 9.47826 5.4958C9.62895 5.65489 9.85499 5.51026 9.9002 5.46687C9.91527 5.43795 9.97554 5.42349 10.0057 5.45241C10.1262 5.53919 10.3372 5.4958 10.3824 5.35117C10.4126 5.20654 10.4276 5.06192 10.4276 4.90282C10.3523 4.93175 10.292 4.94621 10.2619 4.97514L10.2468 4.9896C10.2468 5.03299 10.2317 5.07638 10.2317 5.11977C10.2317 5.11977 10.2317 5.11977 10.2317 5.13423L10.2167 5.14869C10.1865 5.16315 10.1413 5.14869 10.1413 5.11977C10.1112 4.96068 9.94541 4.93175 9.85499 5.19208C9.79471 5.23547 9.67416 5.24993 9.65909 5.17762C9.67416 5.00406 9.59881 4.9896 9.46319 5.06191C9.41798 4.72927 9.37277 4.41109 9.32756 4.07844C9.38784 4.07844 9.44812 4.12183 9.49333 4.04952C9.43305 3.87596 9.31249 3.51439 9.23715 3.48547C9.23715 3.48547 9.23715 3.47101 9.22208 3.47101C9.22208 3.47101 9.22208 3.47101 9.20701 3.47101C9.20701 3.45654 9.19194 3.45654 9.19194 3.45654ZM8.75493 5.29332C8.78507 5.29332 8.81521 5.29332 8.84535 5.35117C8.86041 5.3801 8.84534 5.42348 8.83028 5.43795C8.81521 5.45241 8.77 5.45241 8.73986 5.45241C8.70972 5.45241 8.67958 5.43795 8.66451 5.40902C8.64944 5.3801 8.67958 5.35117 8.69465 5.32225C8.69465 5.32225 8.69465 5.32225 8.69465 5.30778C8.70972 5.30778 8.73986 5.29332 8.75493 5.29332Z" fill="white"/>
</g>
<mask id="mask5_336_3" style="mask-type:luminance" maskUnits="userSpaceOnUse" x="0" y="0" width="25" height="14">
<path d="M25 0H0V14H25V0Z" fill="white"/>
</mask>
<g mask="url(#mask5_336_3)">
<path d="M10.262 3.42773C10.2168 3.42773 10.1866 3.4422 10.1565 3.45666C10.0811 3.52897 10.051 3.64468 10.1263 3.71699C10.1866 3.74592 10.2469 3.80377 10.2017 3.83269C10.0359 4.00625 9.58385 4.30997 9.55371 4.35335C9.58385 4.36782 9.8551 4.36782 9.88524 4.35335C9.97565 4.32443 10.4428 3.81823 10.4428 3.81823C10.4127 3.80377 10.3976 3.7893 10.3675 3.76038C10.3373 3.74592 10.3373 3.71699 10.3675 3.70253C10.488 3.64468 10.4428 3.50005 10.3825 3.4422C10.3524 3.4422 10.3072 3.42773 10.262 3.42773ZM10.2469 3.58683C10.277 3.58683 10.3072 3.61575 10.3222 3.64468C10.3373 3.68806 10.3373 3.71699 10.3072 3.71699C10.277 3.71699 10.2469 3.70253 10.2168 3.65914C10.2017 3.63021 10.2168 3.58683 10.2469 3.58683Z" fill="white"/>
</g>
<mask id="mask6_336_3" style="mask-type:luminance" maskUnits="userSpaceOnUse" x="0" y="0" width="25" height="14">
<path d="M25 0H0V14H25V0Z" fill="white"/>
</mask>
<g mask="url(#mask6_336_3)">
<path d="M7.14247 6.14665C6.97671 6.40698 6.96164 6.79748 7.05205 6.91318C7.09726 6.97103 7.18768 6.98549 7.24795 6.97103C7.35344 6.92764 7.39865 6.7107 7.38358 6.63839C7.35344 6.58054 7.3233 6.58054 7.27809 6.62392C7.20275 6.76855 7.17261 6.66731 7.15754 6.58054C7.14247 6.42144 7.15754 6.27682 7.17261 6.16111C7.20274 6.05987 7.18768 6.10326 7.14247 6.14665Z" fill="white"/>
</g>
<mask id="mask7_336_3" style="mask-type:luminance" maskUnits="userSpaceOnUse" x="0" y="0" width="25" height="14">
<path d="M25 0H0V14H25V0Z" fill="white"/>
</mask>
<g mask="url(#mask7_336_3)">
<path d="M14.4669 5.72724C14.3011 5.38013 14.0751 5.04749 13.9997 4.91732C13.9244 4.78716 13.3819 4.02063 13.2915 3.93385C13.1106 3.73137 13.5778 4.02063 13.2312 3.61567C13.0956 3.49997 13.0956 3.49997 12.975 3.41319C12.9147 3.3698 12.7791 3.31195 12.7641 3.41319C12.749 3.51443 12.7641 3.57228 12.7791 3.65906C12.7942 3.71691 12.8846 3.80369 12.9147 3.86154C13.4723 4.58468 13.9696 5.30782 14.4518 6.21898C14.5272 6.19005 14.5121 5.78509 14.4669 5.72724Z" fill="white"/>
</g>
<mask id="mask8_336_3" style="mask-type:luminance" maskUnits="userSpaceOnUse" x="0" y="0" width="25" height="14">
<path d="M25 0H0V14H25V0Z" fill="white"/>
</mask>
<g mask="url(#mask8_336_3)">
<path d="M13.7434 6.86983C13.7133 6.89876 13.8188 7.05785 13.9695 7.05785C14.2106 7.02892 14.4366 6.89876 14.6325 6.55165C14.6928 6.46487 14.7832 6.29132 14.7832 6.16115C14.7983 5.3657 14.738 4.75826 14.6175 4.17975C14.6024 4.1219 14.6175 4.06405 14.6175 4.03512C14.6325 4.02066 14.6928 4.03512 14.7229 3.99173C14.7681 3.94834 14.6175 3.6157 14.527 3.48553C14.4969 3.42768 14.4818 3.3843 14.4366 3.48553C14.3763 3.57231 14.3462 3.71694 14.3462 3.86157C14.4668 4.64256 14.4969 5.32231 14.5722 6.1033C14.5722 6.17562 14.5722 6.29132 14.512 6.33471C14.3161 6.52272 14.0448 6.76859 13.7434 6.86983Z" fill="white"/>
</g>
<mask id="mask9_336_3" style="mask-type:luminance" maskUnits="userSpaceOnUse" x="0" y="0" width="25" height="14">
<path d="M25 0H0V14H25V0Z" fill="white"/>
</mask>
<g mask="url(#mask9_336_3)">
<path d="M17.0586 6.86995C16.8778 6.97119 16.8778 7.08689 17.0285 7.08689C17.2696 7.05797 17.571 7.0435 17.7669 6.75425C17.8271 6.66747 17.8874 6.45053 17.8874 6.32036C17.9025 5.52491 17.8723 4.75838 17.7518 4.17987C17.7367 4.12202 17.7216 3.99185 17.7216 3.97739C17.7367 3.934 17.8121 3.97739 17.8422 3.934C17.8874 3.89061 17.6312 3.58689 17.5408 3.45673C17.5107 3.39888 17.4956 3.35549 17.4504 3.45673C17.3901 3.5435 17.375 3.68813 17.4052 3.83276C17.5408 4.6716 17.6312 5.49598 17.6463 6.24805C17.6312 6.32036 17.6312 6.36375 17.6011 6.45053C17.5257 6.55177 17.4353 6.66747 17.36 6.72532C17.2846 6.76871 17.1038 6.82656 17.0586 6.86995Z" fill="white"/>
</g>
<mask id="mask10_336_3" style="mask-type:luminance" maskUnits="userSpaceOnUse" x="0" y="0" width="25" height="14">
<path d="M25 0H0V14H25V0Z" fill="white"/>
</mask>
<g mask="url(#mask10_336_3)">
<path d="M17.1944 6.11772C17.1944 5.91524 17.1944 5.75615 17.1944 5.59706C17.1944 5.45243 17.1191 4.90284 17.0889 4.77268C17.0588 4.65697 17.0437 4.46896 17.0136 4.33879C16.9985 4.28094 16.9684 4.10739 16.9834 4.09292C16.9985 4.04954 17.0588 4.09292 17.0739 4.04954C17.1191 4.00615 16.9382 3.5578 16.8478 3.42764C16.8177 3.36978 16.7574 3.38425 16.6821 3.48549C16.6067 3.54334 16.6368 3.68797 16.667 3.81813C16.8478 4.70036 16.9684 5.62598 16.9382 6.46483C16.9232 6.53714 17.1944 6.24788 17.1944 6.11772Z" fill="white"/>
</g>
<mask id="mask11_336_3" style="mask-type:luminance" maskUnits="userSpaceOnUse" x="0" y="0" width="25" height="14">
<path d="M25 0H0V14H25V0Z" fill="white"/>
</mask>
<g mask="url(#mask11_336_3)">
<path d="M15.8833 5.01851C15.7778 5.01851 15.5367 4.81603 15.4764 4.68587C15.4463 4.61355 15.4613 4.5557 15.4915 4.51231C15.5367 4.48339 15.5969 4.45446 15.6422 4.48339L15.6874 4.5557C15.7476 4.58463 15.7778 4.57016 15.7778 4.54124C15.7778 4.49785 15.7627 4.46892 15.7627 4.42554C15.7928 4.29537 15.9285 4.28091 15.9887 4.36768C16.034 4.41107 16.049 4.51231 16.049 4.58463C16.049 4.61355 15.9887 4.58463 15.9586 4.58463C15.9285 4.59909 15.9134 4.62801 15.9134 4.6714C15.8983 4.77264 15.8833 4.90281 15.8833 5.01851Z" fill="white"/>
</g>
<mask id="mask12_336_3" style="mask-type:luminance" maskUnits="userSpaceOnUse" x="0" y="0" width="25" height="14">
<path d="M25 0H0V14H25V0Z" fill="white"/>
</mask>
<g mask="url(#mask12_336_3)">
<path d="M13.8333 6.33463C13.8635 6.05984 13.8183 5.52471 13.8183 5.36562C13.8032 4.98959 13.7429 4.26645 13.7128 4.15075C13.6826 3.91934 13.8032 4.17967 13.7881 4.04951C13.7429 3.8181 13.6073 3.67347 13.4566 3.45653C13.4114 3.38422 13.4114 3.36976 13.336 3.471C13.2456 3.65901 13.321 3.78918 13.3511 3.93381C13.4566 4.39662 13.5319 4.8305 13.5621 5.26438C13.5922 5.69827 13.6073 6.21893 13.5771 6.68174C13.6525 6.65281 13.7881 6.52265 13.8333 6.33463Z" fill="white"/>
</g>
<mask id="mask13_336_3" style="mask-type:luminance" maskUnits="userSpaceOnUse" x="0" y="0" width="25" height="14">
<path d="M25 0H0V14H25V0Z" fill="white"/>
</mask>
<g mask="url(#mask13_336_3)">
<path d="M17.5713 5.90073C17.3754 5.58255 17.074 5.22098 16.9987 5.09081C16.9233 4.96065 16.2603 4.02056 16.1699 3.94825C15.9287 3.70238 16.2753 3.90486 16.1246 3.71684C15.989 3.57222 15.9589 3.52883 15.8383 3.44205C15.7781 3.41313 15.7479 3.34081 15.7328 3.45651C15.7178 3.55775 15.7178 3.67346 15.7178 3.76023C15.7178 3.80362 15.763 3.8904 15.8082 3.94825C16.3959 4.64246 17.0439 5.49577 17.5562 6.39246C17.6316 6.36354 17.6165 5.95858 17.5713 5.90073Z" fill="white"/>
</g>
<mask id="mask14_336_3" style="mask-type:luminance" maskUnits="userSpaceOnUse" x="0" y="0" width="25" height="14">
<path d="M25 0H0V14H25V0Z" fill="white"/>
</mask>
<g mask="url(#mask14_336_3)">
<path d="M15.2049 9.61768C15.024 9.66106 15.0391 9.83462 15.1446 9.90693C13.3212 9.90693 10.5183 9.87801 9.91554 9.87801C9.58401 9.87801 8.51409 9.83462 8.49902 9.83462C8.72506 10.1528 9.05659 10.2251 9.4936 10.2251C10.3073 10.2251 14.0596 10.2107 15.1295 10.2107C15.0542 10.3408 15.1295 10.5433 15.1898 10.5867C15.2651 10.6011 15.2953 10.5578 15.3104 10.5144C15.4309 10.5288 16.0638 10.5288 16.1241 10.5144C16.1693 10.5722 16.1994 10.6301 16.2748 10.6156C16.4104 10.5867 16.5159 10.5722 16.5159 10.3119C16.5159 10.3119 16.5008 9.86354 16.1994 9.89247C16.1241 9.90693 15.9282 9.92139 15.9282 9.92139C15.7022 9.89247 15.5213 9.89247 15.2651 9.87801C15.2953 9.84908 15.3254 9.73338 15.2802 9.68999C15.2651 9.67553 15.2501 9.67553 15.2199 9.67553C15.2199 9.67553 15.2049 9.63214 15.2049 9.61768ZM15.3254 10.254C15.5967 10.2685 15.8378 10.254 16.109 10.2685C16.1542 10.2974 16.1241 10.3842 16.109 10.3987C16.0186 10.3987 15.9734 10.3987 15.883 10.3987V10.3842C15.8679 10.3264 15.7172 10.3264 15.672 10.3697C15.5515 10.3842 15.446 10.3697 15.3254 10.3553C15.2802 10.3408 15.2802 10.2685 15.3254 10.254Z" fill="white"/>
</g>
<mask id="mask15_336_3" style="mask-type:luminance" maskUnits="userSpaceOnUse" x="0" y="0" width="25" height="14">
<path d="M25 0H0V14H25V0Z" fill="white"/>
</mask>
<g mask="url(#mask15_336_3)">
<path d="M10.579 3.70255C10.3981 4.19428 10.6844 4.72941 10.8803 4.67156C11.016 4.72941 11.1064 4.46908 11.1667 4.19428C11.2119 4.12197 11.242 4.10751 11.2571 4.15089C11.2571 4.52693 11.2872 4.59924 11.3776 4.71494C11.6037 4.87404 11.7845 4.72941 11.7996 4.72941C11.8146 4.71494 11.9804 4.55585 11.9804 4.55585C12.0256 4.51247 12.0708 4.51247 12.1311 4.55585C12.1763 4.59924 12.1763 4.68602 12.2969 4.74387C12.3873 4.78726 12.5982 4.75833 12.6434 4.67156C12.7037 4.57032 12.7188 4.52693 12.7489 4.498C12.7941 4.44015 12.8695 4.46908 12.8695 4.48354C12.8695 4.51247 12.8243 4.54139 12.8544 4.6137C12.9147 4.65709 12.9147 4.62817 12.9599 4.6137C13.0654 4.55585 13.1558 4.32445 13.1558 4.32445C13.1558 4.23767 13.1106 4.23767 13.0805 4.2666C13.0353 4.29552 13.0353 4.29552 12.99 4.32445C12.9298 4.32445 12.8243 4.36784 12.7791 4.28106C12.7188 4.17982 12.7188 4.04966 12.6887 3.96288C12.6887 3.96288 12.6133 3.81825 12.6887 3.80379C12.7188 3.80379 12.7941 3.83271 12.8092 3.77486C12.8393 3.71701 12.7339 3.55792 12.6585 3.47114C12.5982 3.39883 12.5078 3.39883 12.4174 3.47114C12.3571 3.52899 12.3571 3.58685 12.3571 3.6447C12.3421 3.71701 12.3421 3.78932 12.4174 3.8761C12.4777 3.9918 12.5982 4.13643 12.553 4.35337C12.553 4.35337 12.4928 4.45461 12.3722 4.44015C12.327 4.42569 12.2516 4.41123 12.2064 4.12197C12.1763 3.90503 12.2064 3.58685 12.116 3.44222C12.0859 3.35544 12.0557 3.26866 11.9653 3.41329C11.9352 3.47114 11.8448 3.55792 11.9201 3.74594C11.9804 3.86164 11.9955 4.04966 11.9804 4.2666C11.9352 4.32445 11.9352 4.35337 11.8749 4.41123C11.7996 4.48354 11.7242 4.46908 11.6489 4.44015C11.5886 4.39676 11.5434 4.3823 11.5133 4.2666C11.5133 4.07858 11.5283 3.7604 11.4982 3.68808C11.4379 3.58685 11.3626 3.61577 11.3173 3.65916C11.1365 3.81825 11.0461 4.09304 10.9858 4.30999C10.9406 4.46908 10.8803 4.42569 10.8502 4.35337C10.6995 4.23767 10.6844 3.58685 10.579 3.70255Z" fill="white"/>
</g>
<mask id="mask16_336_3" style="mask-type:luminance" maskUnits="userSpaceOnUse" x="0" y="0" width="25" height="14">
<path d="M25 0H0V14H25V0Z" fill="white"/>
</mask>
<g mask="url(#mask16_336_3)">
<path d="M11.1817 4.70044C11.1666 4.7149 11.1666 4.7149 11.1817 4.70044C11.1666 4.7149 11.1515 4.72937 11.1214 4.75829C11.0762 4.81614 11.0611 4.85953 11.0611 4.97523C11.0611 4.9897 11.1666 5.25003 11.2419 5.42358C11.3022 5.6116 11.3474 5.82854 11.3173 6.03102C11.1817 6.29135 10.9255 6.53722 10.6844 6.66738C10.5638 6.71077 10.4433 6.69631 10.4131 6.66738C10.3378 6.62399 10.3378 6.53722 10.3378 6.52275C10.5487 6.37813 10.7899 6.26242 10.9707 5.88639C11.031 5.74176 11.046 5.65498 10.9858 5.42358C10.9707 5.3368 10.9405 5.27895 10.8803 5.20664C10.9104 5.19217 11.0159 5.25003 11.031 5.2211C11.0159 5.11986 10.9405 4.97523 10.8501 4.90292C10.7748 4.8306 10.6994 4.8306 10.6241 4.88846C10.5487 4.93184 10.5337 5.07647 10.5638 5.20664C10.609 5.30788 10.7145 5.32234 10.7899 5.51036C10.7899 5.52482 10.82 5.65498 10.7748 5.71284C10.7446 5.81408 10.3227 6.13226 10.2926 6.14672C10.2926 6.13226 10.2926 6.11779 10.2926 6.08887C10.2926 6.03102 10.3076 5.90085 10.3076 5.87193C10.172 5.9587 10.1268 6.21903 10.0967 6.29135C9.75007 6.52275 9.35827 6.69631 9.11716 6.92771C8.9966 7.10127 9.9309 6.72523 10.0515 6.68184C10.0665 6.71077 10.0665 6.78308 10.1419 6.8554C10.2323 6.98556 10.4433 7.05788 10.6542 7.01449C10.9858 6.89879 11.1817 6.68184 11.3926 6.43598C11.4228 6.39259 11.468 6.36366 11.5132 6.39259C11.6488 6.68184 12.0406 6.89879 12.553 6.91325C12.6735 6.78308 12.6132 6.71077 12.568 6.68184C12.553 6.66738 12.3119 6.5806 12.2817 6.49383C12.2516 6.40705 12.3119 6.33474 12.4324 6.27689C12.7639 6.2335 13.0804 6.19011 13.3968 6.10333C13.3968 6.00209 13.4571 5.85746 13.5023 5.78515C13.5325 5.74176 13.5475 5.74176 13.5626 5.7273C13.5626 5.7273 13.5626 5.7273 13.5626 5.71284L13.5023 5.68391H12.4625C12.4475 5.68391 12.4324 5.66945 12.4324 5.66945C12.4324 5.66945 12.4475 5.65498 12.4625 5.65498C12.7187 5.62606 13.1557 5.55374 13.1859 5.14879C13.1859 4.93184 13.0955 4.80168 12.8242 4.75829C12.6283 4.77275 12.4776 4.96077 12.5078 5.16325C12.4927 5.2211 12.5228 5.32234 12.4625 5.3368C12.0858 5.36573 11.6639 5.59713 11.6488 5.77069C11.6187 5.77069 11.5885 5.7273 11.6036 5.66945C11.5885 5.38019 11.4981 5.06201 11.3474 4.81614C11.2269 4.72936 11.1967 4.7149 11.1817 4.70044ZM12.7037 5.07647C12.7338 5.07647 12.7489 5.07647 12.779 5.09094C12.8242 5.11986 12.8393 5.14879 12.8393 5.17771C12.8091 5.20664 12.7639 5.20664 12.7338 5.17771C12.6886 5.14879 12.6735 5.11986 12.6735 5.09094C12.6735 5.09094 12.6735 5.09094 12.6735 5.07647C12.6886 5.07647 12.6886 5.07647 12.7037 5.07647ZM11.7392 5.91532C11.8598 5.94424 12.0406 5.94424 12.1913 5.9587C12.3119 5.97317 12.3721 6.05994 12.2666 6.08887C12.1612 6.13226 12.0406 6.16118 12.0406 6.30581C12.0557 6.37813 12.0557 6.42151 12.0406 6.43598C12.0105 6.43598 11.9803 6.42151 11.9502 6.40705C11.8748 6.36366 11.694 6.24796 11.6639 6.00209C11.6187 5.97317 11.6639 5.91532 11.7392 5.91532Z" fill="white"/>
</g>
<mask id="mask17_336_3" style="mask-type:luminance" maskUnits="userSpaceOnUse" x="0" y="0" width="25" height="14">
<path d="M25 0H0V14H25V0Z" fill="white"/>
</mask>
<g mask="url(#mask17_336_3)">
<path d="M8.39315 3.70237C8.5137 3.76022 8.73974 3.7313 8.72467 3.54328C8.72467 3.52882 8.72467 3.47097 8.72467 3.45651C8.69453 3.39865 8.63426 3.41312 8.61919 3.47097C8.61919 3.48543 8.63426 3.51436 8.60412 3.52882C8.58905 3.54328 8.55891 3.52882 8.55891 3.48543C8.55891 3.47097 8.54384 3.45651 8.54384 3.44204C8.52877 3.44204 8.52877 3.44204 8.5137 3.44204C8.49863 3.44204 8.49863 3.44204 8.48356 3.45651C8.48356 3.47097 8.46849 3.48543 8.46849 3.49989C8.46849 3.51436 8.45342 3.52882 8.43835 3.52882C8.42329 3.52882 8.42329 3.52882 8.40822 3.52882C8.39315 3.51436 8.39315 3.51436 8.39315 3.49989C8.39315 3.48543 8.39315 3.45651 8.37808 3.45651C8.37808 3.44204 8.36301 3.44204 8.34794 3.44204C8.28766 3.44204 8.27259 3.51436 8.28766 3.54328C8.30273 3.54328 8.30273 3.67345 8.39315 3.70237Z" fill="white"/>
</g>
<mask id="mask18_336_3" style="mask-type:luminance" maskUnits="userSpaceOnUse" x="0" y="0" width="25" height="14">
<path d="M25 0H0V14H25V0Z" fill="white"/>
</mask>
<g mask="url(#mask18_336_3)">
<path d="M11.9044 5.13426C12.025 5.19211 12.3113 5.16318 12.236 4.97517C12.236 4.9607 12.236 4.90285 12.236 4.88839C12.2058 4.83054 12.1456 4.845 12.1305 4.90285C12.1305 4.91732 12.1456 4.94624 12.1154 4.9607C12.1003 4.97517 12.0702 4.9607 12.0702 4.91732C12.0702 4.90285 12.0551 4.88839 12.0551 4.87393C12.0551 4.87393 12.0401 4.87393 12.025 4.87393C12.0099 4.87393 12.0099 4.87393 11.9949 4.88839C11.9949 4.90285 11.9798 4.91732 11.9798 4.93178C11.9798 4.94624 11.9647 4.9607 11.9497 4.9607C11.9346 4.9607 11.9346 4.9607 11.9195 4.9607C11.9044 4.94624 11.9044 4.94624 11.9044 4.93178C11.9044 4.91732 11.9044 4.88839 11.9044 4.88839C11.9044 4.87393 11.8894 4.87393 11.8743 4.87393C11.814 4.87393 11.799 4.94624 11.814 4.97517C11.814 4.9607 11.814 5.09087 11.9044 5.13426Z" fill="white"/>
</g>
<mask id="mask19_336_3" style="mask-type:luminance" maskUnits="userSpaceOnUse" x="0" y="0" width="25" height="14">
<path d="M25 0H0V14H25V0Z" fill="white"/>
</mask>
<g mask="url(#mask19_336_3)">
<path d="M13.9547 4.54124C14.0752 4.59909 14.3013 4.57017 14.2862 4.38215C14.2862 4.36769 14.2862 4.30984 14.2862 4.29537C14.2561 4.23752 14.1958 4.25198 14.1807 4.30984C14.1807 4.3243 14.1958 4.35322 14.1656 4.36769C14.1506 4.38215 14.1204 4.36769 14.1204 4.3243C14.1204 4.30984 14.1054 4.29537 14.1054 4.28091C14.1054 4.28091 14.0903 4.28091 14.0752 4.28091C14.0602 4.28091 14.0602 4.28091 14.0451 4.29537C14.0451 4.30984 14.03 4.3243 14.03 4.33876C14.03 4.35322 14.015 4.36769 13.9999 4.36769C13.9848 4.36769 13.9848 4.36769 13.9697 4.36769C13.9697 4.35322 13.9547 4.35322 13.9547 4.33876C13.9547 4.3243 13.9547 4.29537 13.9547 4.29537C13.9547 4.28091 13.9396 4.28091 13.9245 4.28091C13.8643 4.26645 13.8643 4.33876 13.8643 4.36769C13.8643 4.38215 13.8643 4.49785 13.9547 4.54124Z" fill="white"/>
</g>
<mask id="mask20_336_3" style="mask-type:luminance" maskUnits="userSpaceOnUse" x="0" y="0" width="25" height="14">
<path d="M25 0H0V14H25V0Z" fill="white"/>
</mask>
<g mask="url(#mask20_336_3)">
<path d="M15.0088 6.03089C14.7979 6.2623 14.8883 6.63833 14.9335 6.71065C15.0088 6.84081 15.054 6.92759 15.1897 6.98544C15.3102 7.07222 15.4006 7.01437 15.4609 6.95651C15.5815 6.84081 15.5815 6.52263 15.6417 6.46478C15.6869 6.34908 15.7774 6.378 15.8376 6.42139C15.8828 6.4937 15.9431 6.53709 16.0185 6.56602C16.139 6.66726 16.2746 6.68172 16.4103 6.59494C16.5007 6.55156 16.561 6.47924 16.6212 6.34908C16.6815 6.18999 16.6514 5.35114 16.6363 4.93172C16.6363 4.90279 16.5158 4.35321 16.5158 4.35321C16.5158 4.35321 16.5007 4.07842 16.4856 4.0061C16.4856 3.97718 16.4705 3.97718 16.5007 3.97718C16.5308 4.0061 16.5308 4.0061 16.561 4.0061C16.5911 4.0061 16.6212 3.96271 16.6062 3.91932C16.5158 3.74577 16.4103 3.58668 16.3199 3.41313C16.2897 3.3842 16.2596 3.36974 16.2294 3.41313C16.1993 3.44205 16.1541 3.4999 16.1541 3.55775C16.1692 3.67346 16.1842 3.80362 16.1993 3.91932C16.2445 4.1218 16.2746 4.32428 16.3199 4.54122C16.35 4.97511 16.3651 5.38007 16.3952 5.82841C16.3952 6.01643 16.3349 6.2623 16.2746 6.29122C16.2746 6.29122 16.1842 6.33461 16.124 6.29122C16.0787 6.27676 15.913 6.01643 15.913 6.01643C15.8226 5.94412 15.7774 5.95858 15.702 6.01643C15.5362 6.17552 15.4609 6.46478 15.3403 6.66726C15.3102 6.71065 15.2198 6.75403 15.1294 6.66726C14.9033 6.34908 15.039 5.91519 15.0088 6.03089Z" fill="white"/>
</g>
<mask id="mask21_336_3" style="mask-type:luminance" maskUnits="userSpaceOnUse" x="0" y="0" width="25" height="14">
<path d="M25 0H0V14H25V0Z" fill="white"/>
</mask>
<g mask="url(#mask21_336_3)">
<path d="M13.9996 3.45663C14.1051 3.50002 14.1804 3.7025 14.1654 3.80374C14.1503 3.9339 14.09 4.06407 14.0448 4.0496C13.9996 4.03514 14.0749 3.91944 14.0297 3.80374C13.9996 3.73142 13.864 3.58679 13.879 3.55787C13.8489 3.48555 13.9393 3.44217 13.9996 3.45663Z" fill="white"/>
</g>
<mask id="mask22_336_3" style="mask-type:luminance" maskUnits="userSpaceOnUse" x="0" y="0" width="25" height="14">
<path d="M25 0H0V14H25V0Z" fill="white"/>
</mask>
<g mask="url(#mask22_336_3)">
<path d="M15.3559 6.14676C15.3709 5.90089 15.3408 5.7418 15.3408 5.59717C15.3408 5.45254 15.16 4.25213 15.1298 4.13643C15.0846 3.91949 15.2956 4.1075 15.2655 3.9918C15.1901 3.83271 15.0244 3.61577 14.9641 3.47114C14.9339 3.41329 14.949 3.35544 14.8737 3.45668C14.7983 3.67362 14.7832 3.84717 14.8134 3.97734C14.9942 4.85957 15.175 5.66949 15.1449 6.50833C15.2203 6.50833 15.3257 6.33477 15.3559 6.14676Z" fill="white"/>
</g>
<mask id="mask23_336_3" style="mask-type:luminance" maskUnits="userSpaceOnUse" x="0" y="0" width="25" height="14">
<path d="M25 0H0V14H25V0Z" fill="white"/>
</mask>
<g mask="url(#mask23_336_3)">
<path d="M17.1944 3.76034C17.2999 3.80373 17.3451 4.06406 17.3451 4.13637C17.33 4.26654 17.2697 4.42563 17.2396 4.3967C17.1944 4.38224 17.2547 4.19422 17.2245 4.13637C17.2094 4.0496 17.0738 3.90497 17.0889 3.86158C17.0588 3.78927 17.1341 3.74588 17.1944 3.76034Z" fill="white"/>
</g>
<mask id="mask24_336_3" style="mask-type:luminance" maskUnits="userSpaceOnUse" x="0" y="0" width="25" height="14">
<path d="M25 0H0V14H25V0Z" fill="white"/>
</mask>
<g mask="url(#mask24_336_3)">
<path d="M9.91547 5.66943C10.0059 5.69836 10.0662 5.90084 10.0511 5.94423C10.036 6.04547 9.97575 6.14671 9.94561 6.13224C9.9004 6.11778 9.96068 5.98762 9.93054 5.94423C9.91547 5.84299 9.79492 5.78514 9.79492 5.74175C9.77985 5.6839 9.8552 5.66943 9.91547 5.66943Z" fill="white"/>
</g>
<mask id="mask25_336_3" style="mask-type:luminance" maskUnits="userSpaceOnUse" x="0" y="0" width="25" height="14">
<path d="M25 0H0V14H25V0Z" fill="white"/>
</mask>
<g mask="url(#mask25_336_3)">
<path d="M7.4141 3.39888C7.54973 3.44227 7.5648 3.63028 7.54973 3.68814C7.53466 3.78938 7.48945 3.90508 7.44424 3.89061C7.39904 3.87615 7.44424 3.73152 7.42917 3.68814C7.4141 3.63028 7.29355 3.51458 7.30862 3.48566C7.27848 3.41334 7.35383 3.38442 7.4141 3.39888Z" fill="white"/>
</g>
<mask id="mask26_336_3" style="mask-type:luminance" maskUnits="userSpaceOnUse" x="0" y="0" width="25" height="14">
<path d="M25 0H0V14H25V0Z" fill="white"/>
</mask>
<g mask="url(#mask26_336_3)">
<path d="M10.1421 4.32444C10.0366 4.38229 9.99137 4.54138 10.0667 4.64262C10.127 4.7294 10.2325 4.70047 10.2325 4.70047C10.338 4.71494 10.3982 4.51246 10.3982 4.51246C10.3982 4.51246 10.3982 4.45461 10.2777 4.55585C10.2325 4.57031 10.2174 4.54138 10.2023 4.51246C10.1873 4.45461 10.1873 4.41122 10.2174 4.35337C10.2475 4.30998 10.2023 4.28105 10.1421 4.32444Z" fill="white"/>
</g>
<mask id="mask27_336_3" style="mask-type:luminance" maskUnits="userSpaceOnUse" x="0" y="0" width="25" height="14">
<path d="M25 0H0V14H25V0Z" fill="white"/>
</mask>
<g mask="url(#mask27_336_3)">
<path d="M10.9406 3.32639C10.8804 3.35532 10.7749 3.47102 10.7749 3.58672C10.7749 3.65904 10.7598 3.65904 10.805 3.70243C10.8351 3.74581 10.8804 3.74581 10.9406 3.71689C10.9858 3.68796 10.9858 3.6735 11.0009 3.63011C11.016 3.5578 10.9105 3.6735 10.8954 3.58672C10.8653 3.49995 10.9406 3.47102 11.0009 3.39871C11.016 3.32639 11.016 3.283 10.9406 3.32639Z" fill="white"/>
</g>
<mask id="mask28_336_3" style="mask-type:luminance" maskUnits="userSpaceOnUse" x="0" y="0" width="25" height="14">
<path d="M25 0H0V14H25V0Z" fill="white"/>
</mask>
<g mask="url(#mask28_336_3)">
<path d="M11.5732 3.4276C11.5431 3.47099 11.528 3.73132 11.528 3.73132C11.513 3.80363 11.6034 3.83256 11.6637 3.74578C11.739 3.57223 11.739 3.48545 11.739 3.41314C11.7089 3.29743 11.6335 3.3119 11.5732 3.4276Z" fill="white"/>
</g>
<mask id="mask29_336_3" style="mask-type:luminance" maskUnits="userSpaceOnUse" x="0" y="0" width="25" height="14">
<path d="M25 0H0V14H25V0Z" fill="white"/>
</mask>
<g mask="url(#mask29_336_3)">
<path d="M15.6266 5.40901C15.6417 5.39455 16.1992 5.01852 16.1992 5.01852C16.2595 5.00405 16.2444 5.22099 16.2143 5.20653C16.2294 5.24992 15.6718 5.61149 15.6266 5.59703C15.5965 5.62595 15.5663 5.4524 15.6266 5.40901Z" fill="white"/>
</g>
<mask id="mask30_336_3" style="mask-type:luminance" maskUnits="userSpaceOnUse" x="0" y="0" width="25" height="14">
<path d="M25 0H0V14H25V0Z" fill="white"/>
</mask>
<g mask="url(#mask30_336_3)">
<path d="M16.1245 5.40921C16.2299 5.45259 16.2601 5.72739 16.245 5.7997C16.245 5.94433 16.1546 6.06003 16.1094 6.04557C16.0642 6.03111 16.1094 5.87202 16.0943 5.81416C16.0793 5.72739 15.9888 5.58276 16.0039 5.53937C15.9888 5.43813 16.0642 5.39474 16.1245 5.40921Z" fill="white"/>
</g>
<mask id="mask31_336_3" style="mask-type:luminance" maskUnits="userSpaceOnUse" x="0" y="0" width="25" height="14">
<path d="M25 0H0V14H25V0Z" fill="white"/>
</mask>
<g mask="url(#mask31_336_3)">
<path d="M12.8238 6.59494C12.869 6.53709 12.9745 6.46478 12.9896 6.46478C13.0498 6.43585 13.095 6.47924 13.095 6.47924C13.1101 6.53709 13.0649 6.58048 13.08 6.65279C13.095 6.68172 13.095 6.71064 13.1553 6.69618C13.2457 6.62387 13.3211 6.62387 13.4115 6.62387C13.4718 6.62387 13.4868 6.73957 13.4416 6.73957C13.2759 6.7685 13.2005 6.81188 13.095 6.85527C13.0348 6.8842 12.9896 6.84081 12.9896 6.84081C12.9896 6.84081 12.9594 6.81188 12.9745 6.73957C12.9745 6.68172 12.9594 6.65279 12.8991 6.65279C12.869 6.66726 12.8238 6.68172 12.8087 6.63833C12.7937 6.62387 12.7937 6.6094 12.8238 6.59494Z" fill="white"/>
</g>
<mask id="mask32_336_3" style="mask-type:luminance" maskUnits="userSpaceOnUse" x="0" y="0" width="25" height="14">
<path d="M25 0H0V14H25V0Z" fill="white"/>
</mask>
<g mask="url(#mask32_336_3)">
<path d="M16.7117 6.73955C16.7419 6.76848 16.7569 6.7974 16.7117 6.84079C16.6665 6.86972 16.6515 6.89864 16.6063 6.92757C16.5912 6.95649 16.5761 6.99988 16.6364 7.01435C16.7419 7.04327 16.983 6.89864 16.983 6.88418C17.0282 6.85525 17.0131 6.7974 17.0131 6.7974C16.983 6.76848 16.9378 6.78294 16.9076 6.78294C16.8926 6.78294 16.8323 6.76848 16.8624 6.72509C16.8775 6.69616 16.8926 6.6817 16.9076 6.63831C16.9227 6.60939 16.9076 6.58046 16.8474 6.566C16.7871 6.55154 16.7569 6.566 16.6967 6.566C16.6665 6.566 16.6515 6.59492 16.6364 6.62385C16.6364 6.71063 16.6665 6.71063 16.7117 6.73955Z" fill="white"/>
</g>
</g>
</g>
<defs>
<clipPath id="clip0_336_3">
<rect width="25" height="14" fill="white"/>
</clipPath>
</defs>
</svg>
