<svg width="14" height="14" viewBox="0 0 14 14" fill="none" xmlns="http://www.w3.org/2000/svg">
<path d="M13.0513 12.4299L8.68649 6.09118L8.19301 5.37529L5.07229 0.840164L4.81512 0.464844H0.978516L1.91334 1.82364L6.06272 7.8531L6.55619 8.56898L9.89238 13.4134L10.1495 13.7887H13.9862L13.0513 12.4299ZM10.6048 12.9234L7.14003 7.89132L6.64655 7.17543L2.62923 1.33364H4.35988L7.60918 6.05642L8.10265 6.77231L12.3354 12.9234H10.6048Z" fill="black"/>
<path d="M6.65025 7.17163L7.14026 7.88752L6.55642 8.56866L2.06995 13.7884H0.964844L6.06295 7.85277L6.65025 7.17163Z" fill="black"/>
<path d="M13.5241 0.4646L8.68668 6.09093L8.10285 6.77207L7.60938 6.05618L8.19321 5.37504L11.4703 1.55928L12.419 0.4646H13.5241Z" fill="black"/>
</svg>
