<svg width="26" height="26" viewBox="0 0 26 26" fill="none" xmlns="http://www.w3.org/2000/svg">
<path d="M12.5588 25.8275C19.4948 25.8275 25.1175 20.2047 25.1175 13.2687C25.1175 6.33272 19.4948 0.709961 12.5588 0.709961C5.62275 0.709961 0 6.33272 0 13.2687C0 20.2047 5.62275 25.8275 12.5588 25.8275Z" fill="white"/>
<path d="M19.2995 11.4945C19.2995 9.86253 17.9514 8.5144 16.3194 8.5144H8.58551C6.95358 8.5144 5.60547 9.86253 5.60547 11.4945V15.1131C5.60547 16.745 6.95358 18.0931 8.58551 18.0931H16.3194C17.9514 18.0931 19.2995 16.745 19.2995 15.1131V11.4945ZM14.7585 13.5521L11.2817 15.255C11.1398 15.3259 10.7141 15.255 10.7141 15.0421V11.5654C10.7141 11.4235 11.2108 11.2816 11.2817 11.4235L14.6166 13.1973C14.7585 13.2683 14.9004 13.4811 14.7585 13.5521Z" fill="black"/>
</svg>
